<?xml version="1.0" encoding="UTF-8"?>
<!DOCTYPE svg PUBLIC "-//W3C//DTD SVG 1.1//EN" "http://www.w3.org/Graphics/SVG/1.1/DTD/svg11.dtd">
<!-- Creator: CorelDRAW 2020 (64-Bit) -->
<svg xmlns="http://www.w3.org/2000/svg" xml:space="preserve" width="210mm" height="297mm" version="1.1" style="shape-rendering:geometricPrecision; text-rendering:geometricPrecision; image-rendering:optimizeQuality; fill-rule:evenodd; clip-rule:evenodd"
viewBox="0 0 21000 29700"
 xmlns:xlink="http://www.w3.org/1999/xlink"
 xmlns:xodm="http://www.corel.com/coreldraw/odm/2003">
 <defs>
  <style type="text/css">
   <![CDATA[
    .str0 {stroke:#8EB1C7;stroke-width:423.33;stroke-miterlimit:22.9256}
    .fil0 {fill:none}
    .fil2 {fill:#8EB1C7}
    .fil1 {fill:white}
   ]]>
  </style>
 </defs>
 <g id="Layer_x0020_1">
  <metadata id="CorelCorpID_0Corel-Layer"/>
  <rect class="fil0 str0" x="2865.81" y="6427.31" width="13275.12" height="17395.99"/>
  <rect class="fil1 str0" x="12457.21" y="8223.4" width="2758.82" height="2931.57"/>
  <line class="fil0 str0" x1="3853.74" y1="9896.24" x2="11511.13" y2= "9896.24" />
  <rect class="fil0 str0" x="12457.21" y="11940.62" width="2758.82" height="2931.57"/>
  <line class="fil0 str0" x1="3748.33" y1="13613.47" x2="11405.72" y2= "13613.47" />
  <rect class="fil0 str0" x="12457.21" y="15657.86" width="2758.82" height="2931.57"/>
  <line class="fil0 str0" x1="3713.23" y1="17330.69" x2="11370.62" y2= "17330.69" />
  <rect class="fil0 str0" x="12457.21" y="19375.08" width="2758.82" height="2931.57"/>
  <line class="fil0 str0" x1="3994.26" y1="21047.92" x2="11651.65" y2= "21047.92" />
  <rect class="fil1 str0" x="6099.52" y="5891.89" width="6568.55" height="1018.63"/>
  <g id="_2132129335344">
   <path class="fil2" d="M13507.74 20512.87c62.82,174.7 162.16,428.28 287.16,544.87 1777.96,-1563.58 2205.32,-2192.02 4345.03,-3237.67 -1743.75,1181.78 -974.65,548.49 -2562.02,2069.53 -1233.66,1182.08 -1759.44,2522.38 -2403.77,752.05 -26.02,-125.98 27.61,-256.95 119.72,-292.53 92.11,-35.59 187.86,37.76 213.88,163.75zm264.83 564.47c-10.28,5.48 -19.79,14.37 -29.93,26.32l29.93 -26.32z"/>
  </g>
  <g id="_2097446270192">
   <path class="fil2" d="M13760.09 9266.95c62.82,174.7 162.16,428.28 287.16,544.87 1777.96,-1563.58 2205.32,-2192.02 4345.03,-3237.67 -1743.75,1181.78 -974.65,548.49 -2562.02,2069.53 -1233.66,1182.08 -1759.44,2522.38 -2403.77,752.05 -26.02,-125.98 27.61,-256.95 119.72,-292.53 92.11,-35.59 187.86,37.76 213.88,163.75zm264.83 564.47c-10.28,5.48 -19.79,14.37 -29.93,26.32l29.93 -26.32z"/>
  </g>
  <g id="_2097446266976">
   <path class="fil2" d="M13290.12 13448.14c62.82,174.7 162.16,428.28 287.16,544.87 1777.96,-1563.58 2205.32,-2192.02 4345.03,-3237.67 -1743.75,1181.78 -974.65,548.49 -2562.02,2069.53 -1233.66,1182.08 -1759.44,2522.38 -2403.77,752.05 -26.02,-125.98 27.61,-256.95 119.72,-292.53 92.11,-35.59 187.86,37.76 213.88,163.75zm264.83 564.47c-10.28,5.48 -19.79,14.37 -29.93,26.32l29.93 -26.32z"/>
  </g>
  <g id="_2097446266064">
   <path class="fil2" d="M13469.99 16969.97c62.82,174.7 162.16,428.28 287.16,544.87 1777.96,-1563.58 2205.32,-2192.02 4345.03,-3237.67 -1743.75,1181.78 -974.65,548.49 -2562.02,2069.53 -1233.66,1182.08 -1759.44,2522.38 -2403.77,752.05 -26.02,-125.98 27.61,-256.95 119.72,-292.53 92.11,-35.59 187.86,37.76 213.88,163.75zm264.83 564.47c-10.28,5.48 -19.79,14.37 -29.93,26.32l29.93 -26.32z"/>
  </g>
 </g>
</svg>
