<?xml version="1.0" encoding="UTF-8"?>
<!DOCTYPE svg PUBLIC "-//W3C//DTD SVG 1.1//EN" "http://www.w3.org/Graphics/SVG/1.1/DTD/svg11.dtd">
<!-- Creator: CorelDRAW 2020 (64-Bit) -->
<svg xmlns="http://www.w3.org/2000/svg" xml:space="preserve" width="200mm" height="200mm" version="1.1" style="shape-rendering:geometricPrecision; text-rendering:geometricPrecision; image-rendering:optimizeQuality; fill-rule:evenodd; clip-rule:evenodd"
viewBox="0 0 20000 20000"
 xmlns:xlink="http://www.w3.org/1999/xlink"
 xmlns:xodm="http://www.corel.com/coreldraw/odm/2003">
 <defs>
  <style type="text/css">
   <![CDATA[
    .str0 {stroke:white;stroke-width:10;stroke-miterlimit:22.9256}
    .fil2 {fill:none}
    .fil1 {fill:#8EB1C7}
    .fil0 {fill:white}
   ]]>
  </style>
 </defs>
 <g id="Layer_x0020_1">
  <metadata id="CorelCorpID_0Corel-Layer"/>
  <g id="_1741588786416">
   <g>
    <path class="fil0 str0" d="M1343.69 12038.2c-33.36,-83.14 -91.42,-227.59 -129.71,-423.16 -38.3,-195.57 -56.82,-442.26 -54.97,-662.36 1.85,-220.1 24.09,-413.63 40.76,-561.49 16.67,-147.87 27.8,-250.09 52.51,-368.66 24.69,-118.56 62.99,-253.5 124.75,-494.04 61.77,-240.55 147,-586.7 229.15,-898.12 82.14,-311.42 161.2,-588.07 214.31,-765.25 53.12,-177.17 80.3,-254.85 127.24,-309.36 46.93,-54.52 113.65,-85.86 266.21,-127.42 152.55,-41.58 390.96,-93.37 775.75,-146.52 384.79,-53.16 915.95,-107.66 1238.98,-131.51 323.03,-23.86 437.9,-17.03 640.49,-8.85 202.59,8.17 492.89,17.7 835.68,23.83 342.78,6.14 738.07,8.87 1274.19,10.91 536.1,2.04 1213.04,3.41 2064.77,4.09 851.72,0.68 1878.23,0.68 2429.17,8.18 550.94,7.5 626.28,22.48 723.26,38.83 96.97,16.36 215.55,34.07 320.56,53.16 105,19.08 196.41,39.51 307.58,61.32 111.18,21.81 242.11,44.98 452.11,52.48 210,7.49 499.05,-0.68 678.18,-14.99 179.11,-14.31 248.28,-34.76 283.48,-58.61 35.21,-23.84 36.45,-51.1 183.45,-62.01 147,-10.9 439.75,-5.45 599.11,8.19 159.35,13.62 185.28,35.43 198.26,55.88 12.96,20.43 12.96,39.52 59.91,49.74 46.94,10.21 140.82,11.57 345.88,10.21 205.05,-1.37 521.29,-5.45 801.69,-7.49 280.41,-2.05 525,-2.05 804.18,-2.05 279.17,0 592.92,0 800.45,-0.68 207.52,-0.68 308.82,-2.04 372.44,-21.12 63.61,-19.08 89.56,-55.87 158.74,-66.78 69.17,-10.9 181.58,4.08 209.99,28.62 28.41,24.53 -27.18,58.6 -54.97,109.02 -27.8,50.43 -27.8,117.21 -6.8,379.56 21,262.35 63.01,720.28 87.1,1233.4 24.08,513.1 30.26,1081.42 33.35,1608.16 3.09,526.75 3.09,1011.93 -31.5,1262.7 -34.59,250.77 -103.76,267.11 -347.11,293.01 -243.35,25.88 -660.88,61.33 -1336.58,84.49 -675.69,23.17 -1609.57,34.07 -2087.01,36.13 -477.43,2.04 -498.43,-4.79 -504.6,-68.84 -6.18,-64.06 2.46,-185.34 0.61,-313.45 -1.85,-128.11 -14.21,-263.04 -74.11,-384.32 -59.91,-121.3 -167.39,-228.98 -293.38,-303.93 -126,-74.95 -270.53,-117.2 -408.26,-115.83 -137.74,1.36 -268.68,46.33 -388.49,102.21 -119.83,55.88 -228.54,122.66 -304.51,189.44 -75.97,66.78 -119.2,133.55 -154.4,221.46 -35.21,87.9 -62.39,196.93 -74.13,308 -11.73,111.08 -8.03,224.2 -28.41,280.76 -20.38,56.56 -64.84,56.56 -1270.48,57.24 -1205.63,0.68 -3572.42,2.04 -4757.06,-4.1 -1184.64,-6.13 -1187.1,-19.76 -1187.1,-64.74 0,-44.97 2.46,-121.28 -1.85,-224.85 -4.33,-103.59 -15.45,-234.43 -67.33,-354.35 -51.88,-119.94 -144.53,-228.97 -272.38,-310.05 -127.85,-81.1 -290.91,-134.25 -421.22,-160.14 -130.33,-25.9 -227.92,-24.53 -355.77,21.81 -127.85,46.33 -285.98,137.65 -387.27,229.64 -101.29,91.99 -145.75,184.66 -177.25,286.88 -31.51,102.21 -50.03,213.96 -54.97,316.87 -4.94,102.89 3.7,196.93 0,263.03 -3.71,66.1 -19.77,104.25 -222.97,111.75 -203.2,7.49 -593.55,-15.67 -970.31,-48.38 -376.77,-32.71 -739.93,-74.96 -947.46,-108.35 -207.53,-33.39 -259.42,-57.93 -289.68,-81.09 -30.27,-23.17 -38.91,-44.98 -72.25,-128.11z"/>
    <path class="fil1 str0" d="M2065.13 10714.87c121.06,-8.19 353.29,-59.97 574.4,-119.93 221.11,-59.97 431.12,-128.12 589.23,-234.42 158.11,-106.31 264.35,-250.76 500.29,-590.1 235.94,-339.36 601.58,-873.61 817.75,-1195.24 216.17,-321.64 282.87,-430.66 323.64,-511.06 40.76,-80.42 55.59,-132.21 56.83,-193.53 1.23,-61.33 -11.13,-132.19 -49.41,-174.45 -38.3,-42.25 -102.53,-55.88 -473.11,-49.06 -370.59,6.81 -1047.52,34.07 -1431.69,49.06 -384.17,15 -475.58,17.72 -557.11,76.33 -81.53,58.59 -153.17,173.08 -208.76,337.98 -55.59,164.9 -95.12,380.24 -133.41,705.96 -38.3,325.72 -75.35,761.83 -101.29,1069.84 -25.94,308.01 -40.76,487.9 -46.94,594.2 -6.18,106.31 -3.71,139.01 2.47,173.08 6.17,34.07 16.05,69.51 137.11,61.34z"/>
    <path class="fil1 str0" d="M5617.79 7871.96c-158.13,215.32 -439.76,635.07 -618.87,896.74 -179.13,261.67 -255.71,365.25 -294,423.86 -38.3,58.59 -38.3,72.23 69.17,84.49 107.46,12.26 322.41,23.17 899.29,24.54 576.86,1.36 1515.68,-6.82 2169.14,-13.64 653.45,-6.81 1021.57,-12.26 1672.56,-10.9 650.99,1.36 1584.86,9.54 2461.9,12.28 877.04,2.72 1697.27,-0.02 2323.55,-2.74 626.28,-2.73 1058.64,-5.45 1678.75,-8.17 620.1,-2.73 1427.97,-5.46 1850.43,-29.99 422.47,-24.52 459.53,-70.87 475.59,-140.37 16.05,-69.51 11.11,-162.18 -9.88,-343.44 -21,-181.26 -58.07,-451.11 -98.83,-641.91 -40.77,-190.8 -85.23,-302.55 -191.46,-378.86 -106.24,-76.33 -274.24,-117.22 -2311.21,-129.48 -2036.97,-12.27 -5942.91,4.09 -7913.17,17.72 -1970.27,13.63 -2004.85,24.53 -2162.96,239.87z"/>
    <path class="fil1 str0" d="M1208.54 10583.14c27.5,51.78 91.84,15.44 172.81,-39.53 80.97,-54.97 178.56,-128.58 242.8,-187.17 64.23,-58.61 95.11,-102.21 171.69,-526.07 76.59,-423.85 198.89,-1227.93 258.81,-1651.1 59.9,-423.17 57.43,-465.41 16.56,-481.2 -40.89,-15.79 -120.18,-5.09 -165.27,4.45 -45.09,9.53 -55.97,17.93 -167.96,442.57 -112,424.63 -325.1,1265.52 -436.33,1755.93 -111.24,490.4 -120.6,630.32 -93.11,682.12z"/>
    <path class="fil0 str0" d="M1727.49 8287.55c-82.77,0.16 -138.45,-0.74 -188.05,-0.5 -49.62,0.22 -93.17,1.59 -128.84,2.79 -35.66,1.19 -63.46,2.2 -75.5,-5.29 -12.04,-7.49 -8.34,-23.52 -19.92,-30.66 -11.58,-7.16 -38.44,-5.46 -59.6,0.33 -21.15,5.79 -36.6,15.68 -52.19,42.08 -15.6,26.41 -31.35,69.33 -40.76,147.19 -9.43,77.86 -12.51,190.64 -7.88,281.61 4.63,90.98 16.99,160.13 37.98,199.49 21,39.35 50.65,48.88 78.29,54.17 27.64,5.28 53.27,6.29 66.55,-17.55 13.28,-23.85 14.2,-72.57 11.89,-131.51 -2.32,-58.94 -7.88,-128.11 -10.19,-188.24 -2.32,-60.14 -1.4,-111.25 -4.95,-150.77 -3.55,-39.52 -11.57,-67.46 -17.9,-85.18 -6.34,-17.72 -10.97,-25.22 1.7,-30.16 12.66,-4.95 42.61,-7.32 84.46,-9.36 41.84,-2.05 95.58,-3.76 138.35,-2.56 42.77,1.19 74.58,5.27 158.9,6.29 84.3,1.03 221.11,-1.02 290.74,21.81 69.64,22.83 72.12,70.53 96.21,93.03 24.08,22.48 69.79,19.75 89.25,-12.27 19.45,-32.03 12.65,-93.36 16.36,-179.73 3.71,-86.38 17.91,-197.78 26.11,-275.3 8.18,-77.52 10.33,-121.12 -19.32,-136.62 -29.65,-15.51 -91.1,-2.91 -121.52,37.81 -30.42,40.71 -29.79,109.54 -33.03,170.87 -3.25,61.33 -10.36,115.16 -13.44,146.51 -3.09,31.35 -2.17,40.2 -56.63,45.26 -54.46,5.04 -164.31,6.29 -247.07,6.46z"/>
    <path class="fil2 str0" d="M8308.66 7628.67c-14.81,551.59 -29.62,1103.18 -36.42,1378.97 -6.81,275.79 -5.62,275.78 -4.42,275.77"/>
    <path class="fil2 str0" d="M10769.29 7616.67c-7.76,555.51 -15.51,1111 -23.26,1666.51"/>
    <path class="fil2 str0" d="M5787.56 7684.66c-11.97,518.31 -23.93,1036.63 -35.89,1554.95"/>
    <path class="fil2 str0" d="M13267.07 7610.39c-4.95,559.86 -9.89,1119.72 -14.84,1679.58"/>
    <path class="fil2 str0" d="M15693.92 7614.37c-3.58,555.13 -7.16,1110.27 -10.74,1665.41"/>
    <path class="fil2 str0" d="M17172.78 7636.36c0.21,544.15 0.42,1088.31 0.63,1632.46"/>
   </g>
   <g>
    <ellipse class="fil0 str0" cx="4710.85" cy="12077.81" rx="728.32" ry="803.55"/>
    <ellipse class="fil1 str0" cx="4710.85" cy="12077.81" rx="448.2" ry="494.49"/>
   </g>
   <g>
    <ellipse class="fil0 str0" cx="13654.97" cy="12077.81" rx="728.32" ry="803.55"/>
    <ellipse class="fil1 str0" cx="13654.97" cy="12077.81" rx="448.2" ry="494.49"/>
   </g>
   <path class="fil2 str0" d="M3439.49 7678.01c-19.76,874.96 -39.53,1749.93 -49.41,2187.42 -9.88,437.48 -9.88,437.48 -9.88,437.48"/>
   <path class="fil2 str0" d="M2176.03 8472.29c415.05,5.41 830.1,10.82 1245.15,16.22"/>
   <path class="fil2 str0" d="M2720.56 8479.01c-27.01,705.3 -54.02,1410.62 -81.03,2115.93"/>
  </g>
 </g>
</svg>
