<?xml version="1.0" encoding="UTF-8"?>
<!DOCTYPE svg PUBLIC "-//W3C//DTD SVG 1.1//EN" "http://www.w3.org/Graphics/SVG/1.1/DTD/svg11.dtd">
<!-- Creator: CorelDRAW 2020 (64-Bit) -->
<svg xmlns="http://www.w3.org/2000/svg" xml:space="preserve" width="200mm" height="200mm" version="1.1" style="shape-rendering:geometricPrecision; text-rendering:geometricPrecision; image-rendering:optimizeQuality; fill-rule:evenodd; clip-rule:evenodd"
viewBox="0 0 20000 20000"
 xmlns:xlink="http://www.w3.org/1999/xlink"
 xmlns:xodm="http://www.corel.com/coreldraw/odm/2003">
 <defs>
  <style type="text/css">
   <![CDATA[
    .str0 {stroke:white;stroke-width:10;stroke-miterlimit:22.9256}
    .fil2 {fill:none}
    .fil1 {fill:#8EB1C7}
    .fil0 {fill:white}
   ]]>
  </style>
 </defs>
 <g id="Layer_x0020_1">
  <metadata id="CorelCorpID_0Corel-Layer"/>
  <g id="_1741592306048">
   <path class="fil0 str0" d="M2686.51 7774.36c167.72,-331.12 417.17,-810.54 640.81,-1180.83 223.63,-370.3 421.47,-631.46 584.9,-796.55 163.42,-165.1 292.45,-234.12 538.46,-341.38 245.99,-107.26 608.97,-252.77 946.15,-362.83 337.18,-110.06 648.56,-184.68 1194.76,-226.65 546.19,-41.97 1327.2,-51.3 2349.92,-55.03 1022.72,-3.74 2287.14,-1.87 3282.33,-4.67 995.19,-2.8 1721.16,-10.26 2515.94,-2.8 794.78,7.47 1658.36,29.85 2134.88,53.17 476.53,23.32 565.99,47.57 639.96,131.52 73.97,83.94 132.46,227.58 166,345.11 33.55,117.52 42.16,208.92 98.06,775.09 55.91,566.16 159.14,1607.08 207.3,2355.14 48.17,748.05 41.29,1203.21 36.98,1470.9 -4.3,267.7 -6.01,347.91 8.61,404.81 14.62,56.9 45.59,90.47 67.09,142.71 21.5,52.22 33.55,123.12 35.27,235.04 1.72,111.93 -6.89,264.9 -48.17,409.47 -41.29,144.58 -115.26,280.75 -700.17,400.15 -584.89,119.38 -1680.73,221.98 -2234.66,139.9 -553.94,-82.08 -565.98,-348.84 -630.49,-615.59 -64.51,-266.77 -181.49,-533.53 -345.78,-732.2 -164.29,-198.67 -375.89,-329.26 -568.56,-394.55 -192.67,-65.29 -366.42,-65.29 -529.85,-48.49 -163.43,16.78 -316.54,50.36 -479.96,149.23 -163.43,98.87 -337.18,263.03 -463.62,428.12 -126.45,165.09 -205.58,331.12 -252.03,534.46 -46.45,203.33 -60.21,443.97 -67.95,597.88 -7.74,153.89 -9.46,221.05 -860.15,244.37 -850.69,23.32 -2550.34,2.79 -3408.77,-78.35 -858.43,-81.15 -875.63,-222.92 -904.87,-410.4 -29.25,-187.48 -70.54,-420.66 -122.15,-623.07 -51.61,-202.4 -113.54,-374.02 -167.72,-491.54 -54.2,-117.53 -100.65,-180.95 -154.83,-228.52 -54.2,-47.57 -116.12,-79.28 -326.86,-89.54 -210.74,-10.26 -570.28,0.93 -816.28,37.31 -246.01,36.37 -378.47,97.94 -487.7,197.74 -109.24,99.8 -195.26,237.84 -259.77,368.43 -64.51,130.58 -107.53,253.7 -145.37,403.86 -37.85,150.17 -70.53,327.4 -86.01,435.59 -15.49,108.2 -13.76,147.37 -206.43,161.36 -192.68,13.99 -579.75,2.79 -786.19,-18.65 -206.43,-21.46 -232.24,-53.17 -247.72,-81.15 -15.49,-27.98 -20.64,-52.23 -112.68,-39.17 -92.03,13.05 -270.95,63.42 -379.32,70.88 -108.38,7.46 -146.22,-27.99 -171.17,-108.19 -24.95,-80.22 -36.99,-205.21 -43.01,-304.07 -6.03,-98.87 -6.03,-171.62 7.74,-215.46 13.76,-43.84 41.29,-58.77 78.28,-68.09 36.98,-9.33 83.43,-13.06 106.65,-35.45 23.22,-22.39 23.22,-63.42 10.33,-97 -12.91,-33.58 -38.72,-59.7 -52.47,-97.94 -13.77,-38.24 -15.49,-88.61 -14.62,-146.44 0.85,-57.83 4.29,-123.12 -2.59,-183.75 -6.88,-60.62 -24.08,-116.58 -30.96,-187.47 -6.89,-70.89 -3.45,-156.7 0,-346.97 3.44,-190.28 6.88,-485.03 26.66,-699.55 19.78,-214.53 55.91,-348.84 116.98,-507.41 61.07,-158.56 147.09,-341.37 314.82,-672.49z"/>
   <path class="fil1 str0" d="M3111.58 7933.9c7.74,143.64 6.02,432.79 14.62,612.81 8.6,180.01 27.52,250.9 109.24,291.01 81.71,40.1 226.22,49.43 356.1,46.63 129.89,-2.8 245.14,-17.72 351.81,-75.55 106.65,-57.83 204.71,-158.57 345.77,-292.88 141.07,-134.31 325.14,-302.2 497.17,-402.93 172.03,-100.74 332.02,-134.31 566.84,-150.17 234.82,-15.86 544.47,-13.99 718.23,-27.99 173.75,-13.99 211.59,-43.83 231.37,-207.99 19.79,-164.16 21.51,-462.64 25.81,-749.92 4.3,-287.28 11.18,-563.37 -47.31,-715.4 -58.49,-152.03 -182.35,-180.02 -536.73,-185.61 -354.38,-5.6 -939.29,11.19 -1283.35,35.44 -344.05,24.25 -447.28,55.97 -537.59,152.97 -90.32,97 -167.73,259.3 -276.11,468.23 -108.38,208.93 -247.73,464.49 -349.22,649.18 -101.5,184.68 -165.15,298.46 -188.37,354.43 -23.23,55.97 -6.02,54.1 1.72,197.74z"/>
   <path class="fil1 str0" d="M7381.36 6447.13c54.19,251.83 167.74,723.8 239.99,1031.6 72.25,307.8 103.21,451.44 147.08,535.39 43.87,83.94 100.64,108.19 204.72,121.26 104.07,13.05 255.46,14.91 668.34,11.18 412.87,-3.73 1087.22,-13.05 1433.86,-30.78 346.64,-17.72 365.57,-43.83 380.19,-146.44 14.62,-102.6 24.94,-281.67 25.8,-579.22 0.87,-297.54 -7.74,-713.53 -22.36,-953.25 -14.62,-239.71 -35.26,-303.13 -68.81,-334.85 -33.55,-31.71 -79.99,-31.71 -578.88,-26.11 -498.89,5.59 -1450.22,16.78 -1937.92,27.05 -487.71,10.25 -511.79,19.58 -526.41,40.1 -14.63,20.52 -19.78,52.23 34.4,304.07z"/>
   <path class="fil1 str0" d="M11311.39 6077.77c-497.16,9.32 -529.85,37.31 -545.33,367.49 -15.48,330.19 -13.77,962.58 1.71,1296.49 15.49,333.92 44.74,369.37 542.76,378.7 498.03,9.33 1464.84,-7.47 1963.73,-27.99 498.88,-20.51 529.85,-44.77 549.63,-368.42 19.79,-323.66 28.39,-946.72 11.19,-1269.44 -17.21,-322.73 -60.22,-345.11 -562.55,-360.97 -502.32,-15.86 -1463.97,-25.19 -1961.14,-15.86z"/>
   <path class="fil1 str0" d="M14654.8 6092.69c-467.06,14.93 -506.63,52.23 -535.02,373.09 -28.38,320.86 -45.58,925.27 -33.54,1250.8 12.05,325.52 53.33,372.15 506.63,396.41 453.3,24.25 1318.61,26.11 1768.46,15.85 449.87,-10.26 484.27,-32.64 501.47,-73.69 17.21,-41.04 17.21,-100.73 66.24,-411.33 49.02,-310.6 147.08,-872.1 177.19,-1172.44 30.1,-300.33 -7.74,-339.51 -51.61,-359.1 -43.86,-19.59 -93.76,-19.59 -565.98,-23.32 -472.22,-3.73 -1366.78,-11.19 -1833.84,3.73z"/>
   <path class="fil1 str0" d="M9940.32 8903.94c79.13,-27.99 206.43,-20.53 276.96,13.05 70.54,33.58 84.3,93.27 72.25,152.97 -12.04,59.69 -49.88,119.39 -120.41,141.78 -70.53,22.38 -173.76,7.46 -240.85,-24.25 -67.09,-31.72 -98.05,-80.22 -98.05,-136.18 0,-55.97 30.96,-119.39 110.1,-147.37z"/>
   <path class="fil1 str0" d="M5768.6 8943.11c-36.13,29.85 -36.13,78.35 13.75,102.6 49.89,24.25 149.67,24.25 228.81,24.25 79.13,0 137.62,0 161.71,-24.25 24.08,-24.25 13.76,-72.75 -29.25,-102.6 -43,-29.85 -118.7,-41.04 -192.67,-41.04 -73.98,0 -146.23,11.19 -182.35,41.04z"/>
   <path class="fil1 str0" d="M2288.91 9858.24c41.48,-77.21 147.12,-123.53 235.22,-145.75 88.08,-22.24 158.61,-20.37 206.78,-11.97 48.16,8.39 73.97,23.31 86.02,93.27 12.04,69.96 10.32,194.94 11.18,348.85 0.86,153.89 4.3,336.7 -3.44,447.7 -7.74,110.99 -26.67,150.17 -83.44,165.09 -56.77,14.92 -151.38,5.59 -227.46,-6.22 -76.08,-11.81 -133.63,-26.12 -170.13,-64.99 -36.5,-38.88 -51.96,-102.33 -56.93,-195.19 -4.97,-92.86 0.56,-215.13 -8.02,-330.31 -8.58,-115.18 -31.26,-223.28 10.22,-300.48z"/>
   <path class="fil1 str0" d="M2373.46 8204.42c-96.77,0.93 -276.55,-4.67 -371.59,-14.46 -95.05,-9.8 -105.37,-23.79 -108.39,-61.56 -3.01,-37.78 1.3,-99.34 19.36,-131.98 18.06,-32.65 49.89,-36.38 73.97,-44.31 24.09,-7.93 40.43,-20.05 52.9,-166.02 12.47,-145.97 21.08,-425.79 15.05,-578.76 -6.02,-152.97 -26.66,-179.09 -66.22,-188.88 -39.57,-9.79 -98.06,-3.27 -133.76,13.06 -35.7,16.32 -48.6,42.44 -64.51,107.26 -15.91,64.83 -34.84,168.36 -51.61,291.95 -16.77,123.58 -31.4,267.22 -23.65,347.44 7.74,80.22 37.84,97 53.75,123.12 15.91,26.12 17.64,61.56 20.65,122.19 3,60.62 7.31,146.43 17.2,195.4 9.89,48.97 25.38,61.1 52.47,68.56 27.09,7.46 65.8,10.25 143.64,15.39 77.85,5.13 194.83,12.59 268.8,16.32 73.97,3.73 104.94,3.73 125.59,3.27 20.64,-0.47 30.96,-1.41 46.01,-23.79 15.05,-22.38 34.83,-66.23 37.84,-84.41 3.02,-18.19 -10.74,-10.73 -107.5,-9.79z"/>
   <path class="fil1 str0" d="M2603.37 7823.74c4.04,-95.47 9.2,-266.17 23.82,-388.35 14.63,-122.18 38.7,-195.88 68.81,-245.78 30.1,-49.9 66.24,-76.01 95.48,-91.86 29.24,-15.87 51.61,-21.46 65.38,-6.07 13.75,15.39 18.92,51.76 18.78,111.31 -0.15,59.55 -5.59,142.27 -37.99,241.36 -32.41,99.08 -91.77,214.55 -136.96,303.17 -45.19,88.62 -76.19,150.41 -90.23,171.17 -14.05,20.76 -11.13,0.52 -7.09,-94.95z"/>
   <path class="fil1 str0" d="M15438.28 10968.57c-204.72,98.87 -215.04,281.68 -213.33,378.69 1.73,97 15.48,108.19 228.8,106.32 213.32,-1.87 626.19,-16.78 873.92,-22.37 247.72,-5.6 330.3,-1.87 385.34,-16.8 55.06,-14.92 82.57,-48.5 96.34,-119.39 13.76,-70.89 13.76,-179.08 3.44,-261.16 -10.32,-82.08 -30.96,-138.04 -94.61,-166.02 -63.65,-27.99 -170.32,-27.99 -423.21,-20.53 -252.88,7.46 -651.98,22.39 -856.69,121.26z"/>
   <path class="fil0 str0" d="M17912.93 8960.18c-91.45,48.49 -283.56,63.08 -374.45,-149.75 -90.89,-212.83 -80.57,-653.08 -92.62,-1179.14 -12.04,-526.05 -46.44,-1137.93 -44.72,-1441.99 1.72,-304.07 39.56,-300.34 104.5,-302.96 64.94,-2.62 156.97,-11.6 217.74,134.42 60.77,146.02 90.28,447.04 128.83,927.23 38.56,480.17 86.17,1139.51 114.57,1510.39 28.4,370.87 37.6,453.29 -53.85,501.8z"/>
   <ellipse class="fil0 str0" cx="5324.27" cy="11460.78" rx="1092.32" ry="1184.49"/>
   <ellipse class="fil1 str0" cx="5324.27" cy="11460.78" rx="702.21" ry="761.46"/>
   <ellipse class="fil0 str0" cx="13168.82" cy="11550.33" rx="1092.32" ry="1184.49"/>
   <ellipse class="fil1 str0" cx="13168.82" cy="11550.33" rx="702.21" ry="761.46"/>
   <path class="fil2 str0" d="M17435.71 7288.02c151.88,-0.95 303.77,-1.91 379.71,-2.38 75.94,-0.48 75.94,-0.48 75.94,-0.48"/>
   <path class="fil0 str0" d="M17407.12 11508.39c60.54,1.92 182.63,-23.66 289.43,-58.39 106.8,-34.72 198.3,-78.6 262.23,-125.59 63.93,-47 100.28,-97.13 128.45,-205.28 28.16,-108.15 48.14,-274.34 47.88,-393.28 -0.27,-118.94 -20.78,-190.65 -39.3,-259.21 -18.52,-68.56 -35.05,-133.98 -43.54,-183.88 -8.49,-49.9 -8.95,-84.27 -37.07,-104.41 -28.11,-20.13 -83.89,-26.03 -174.42,-24.04 -90.54,1.99 -215.84,11.86 -294.53,30.14 -78.69,18.29 -110.77,45 -134.67,203 -23.89,158 -39.6,447.28 -48.73,645.87 -9.13,198.58 -11.7,306.46 -13.48,375.1 -1.79,68.64 -2.79,98.05 57.75,99.97z"/>
  </g>
 </g>
</svg>
