<?xml version="1.0" encoding="UTF-8"?>
<!DOCTYPE svg PUBLIC "-//W3C//DTD SVG 1.1//EN" "http://www.w3.org/Graphics/SVG/1.1/DTD/svg11.dtd">
<!-- Creator: CorelDRAW 2020 (64-Bit) -->
<svg xmlns="http://www.w3.org/2000/svg" xml:space="preserve" width="200mm" height="200mm" version="1.1" style="shape-rendering:geometricPrecision; text-rendering:geometricPrecision; image-rendering:optimizeQuality; fill-rule:evenodd; clip-rule:evenodd"
viewBox="0 0 20000 20000"
 xmlns:xlink="http://www.w3.org/1999/xlink"
 xmlns:xodm="http://www.corel.com/coreldraw/odm/2003">
 <defs>
  <style type="text/css">
   <![CDATA[
    .str0 {stroke:white;stroke-width:10;stroke-miterlimit:22.9256}
    .fil2 {fill:none}
    .fil1 {fill:#8EB1C7}
    .fil0 {fill:white}
   ]]>
  </style>
 </defs>
 <g id="Layer_x0020_1">
  <metadata id="CorelCorpID_0Corel-Layer"/>
  <g id="_1743104700368">
   <path class="fil0 str0" d="M1638.08 11826.95c-15.88,-274.45 -21.93,-641.9 2.27,-986.67 24.19,-344.77 78.62,-666.85 170.87,-1185.52 92.24,-518.66 222.28,-1233.91 339.47,-1791.14 117.19,-557.22 221.53,-956.43 298.65,-1174.18 77.12,-217.74 127.02,-254.03 398.45,-301.66 271.43,-47.64 764.39,-106.61 1422.92,-133.83 658.54,-27.22 1482.67,-22.68 2465.56,-15.12 982.89,7.55 2124.56,18.14 2701.44,12.09 576.89,-6.04 588.99,-28.73 627.54,-68.8 38.57,-40.07 103.59,-97.53 169.37,-136.85 65.77,-39.31 132.31,-60.49 746.24,-44.61 613.93,15.88 1775.26,68.81 2430.02,100.56 654.76,31.76 802.94,42.35 931.47,65.79 128.54,23.43 237.41,59.72 313.02,96.77 75.61,37.04 117.94,74.85 159.52,108.12 41.59,33.26 82.42,61.99 139.12,82.41 56.71,20.41 129.29,32.51 389.38,43.1 260.09,10.58 707.69,19.65 1127.31,34.78 419.62,15.12 811.26,36.28 1192.32,56.7 381.06,20.41 751.54,40.07 952.65,65.02 201.12,24.95 232.87,55.19 252.53,101.31 19.66,46.12 27.22,108.12 46.87,192.05 19.67,83.92 51.42,189.77 84.68,415.08 33.27,225.31 68.05,570.08 96.78,1069.08 28.73,499.01 51.42,1152.26 58.98,1698.14 7.56,545.88 0,984.41 -10.59,1255.08 -10.58,270.68 -24.19,373.5 -43.1,455.91 -18.9,82.42 -43.09,144.41 -95.26,188.26 -52.17,43.86 -132.31,69.57 -324.35,109.64 -192.04,40.07 -495.99,94.51 -867.98,145.16 -371.98,50.66 -812.01,97.54 -1182.49,130.05 -370.48,32.51 -671.39,50.65 -822.61,54.43 -151.21,3.79 -152.73,-6.8 -164.82,-96.02 -12.1,-89.21 -34.78,-257.06 -68.05,-378.79 -33.26,-121.72 -77.12,-197.34 -157.26,-266.89 -80.15,-69.56 -196.58,-133.07 -324.36,-167.09 -127.77,-34.03 -266.89,-38.56 -395.42,-21.93 -128.53,16.63 -246.48,54.44 -362.16,123.24 -115.68,68.8 -229.09,168.6 -309.23,283.53 -80.15,114.92 -127.02,244.96 -155,356.11 -27.97,111.14 -37.05,203.38 -51.41,264.62 -14.37,61.25 -34.03,91.48 -65.78,108.12 -31.76,16.63 -75.61,19.66 -470.28,49.14 -394.66,29.49 -1140.15,85.44 -2335.5,168.61 -1195.35,83.17 -2840.56,193.55 -3660.9,224.55 -820.34,31 -815.8,-17.38 -820.34,-101.31 -4.54,-83.92 -18.15,-203.38 -45.36,-317.55 -27.22,-114.16 -68.05,-223.05 -117.2,-320.58 -49.14,-97.53 -106.6,-183.72 -185.23,-261.6 -78.64,-77.87 -178.44,-147.43 -273.7,-190.53 -95.26,-43.09 -186,-59.73 -318.31,-69.56 -132.31,-9.82 -306.21,-12.85 -447.59,1.51 -141.39,14.37 -250.26,46.13 -361.41,102.08 -111.14,55.95 -224.55,136.09 -312.25,215.47 -87.71,79.39 -149.7,158.03 -193.55,235.9 -43.85,77.88 -69.57,154.99 -87.71,251.77 -18.15,96.78 -28.73,213.21 -29.49,319.06 -0.76,105.86 8.32,201.12 -3.78,251.77 -12.1,50.66 -45.36,56.71 -232.87,62 -187.51,5.3 -529.25,9.84 -818.82,6.81 -289.58,-3.02 -526.99,-13.61 -696.34,-27.98 -169.37,-14.36 -270.68,-32.51 -345.53,-103.58 -74.86,-71.07 -123.24,-195.06 -167.85,-321.33 -44.61,-126.26 -85.44,-254.79 -118.7,-409.79 -33.27,-154.99 -58.98,-336.45 -74.85,-610.91z"/>
   <path class="fil1 str0" d="M2638.36 11127.57c202.62,-30.23 580.65,-127.01 870.99,-223.79 290.33,-96.77 492.95,-193.55 685,-299.4 192.04,-105.85 373.5,-220.77 633.59,-406.76 260.09,-186 598.8,-443.06 808.99,-615.45 210.18,-172.38 291.84,-260.09 335.7,-319.06 43.85,-58.97 49.9,-89.21 83.16,-107.36 33.27,-18.15 93.76,-24.19 1807.01,-49.91 1713.25,-25.7 5079.28,-71.06 7107.06,-95.26 2027.78,-24.19 2717.31,-27.22 3075.69,-69.56 358.38,-42.33 385.59,-123.99 432.47,-257.06 46.88,-133.07 113.41,-317.55 137.6,-567.05 24.2,-249.51 6.06,-564.03 -22.68,-783.29 -28.73,-219.26 -68.04,-343.26 -105.85,-402.23 -37.8,-58.98 -74.09,-52.93 -2495.03,-96.78 -2420.93,-43.85 -7226.51,-137.6 -9763.88,-173.89 -2537.38,-36.29 -2806.53,-15.13 -2986.48,22.68 -179.94,37.81 -270.67,92.24 -329.64,175.41 -58.98,83.17 -86.2,195.07 -131.56,405.26 -45.37,210.18 -108.88,518.66 -169.36,881.57 -60.48,362.91 -117.95,780.27 -160.29,1252.05 -42.34,471.79 -69.56,998.02 -78.63,1288.35 -9.07,290.32 0,344.77 18.15,390.13 18.14,45.36 45.36,81.65 247.99,51.4z"/>
   <path class="fil2 str0" d="M8990.67 6705.86c-1.55,794.55 -3.1,1589.1 -1.59,1986.35 1.51,397.24 6.06,397.17 10.62,397.11"/>
   <path class="fil2 str0" d="M4576.99 6642.83c9.59,1793.35 19.18,3586.7 28.77,5380.05"/>
   <path class="fil2 str0" d="M4590.58 9184.52c488.41,-9.59 976.81,-19.18 1465.21,-28.77"/>
   <path class="fil2 str0" d="M2690.56 7703.85c630.76,9.59 1261.51,19.17 1892.26,28.76"/>
   <path class="fil2 str0" d="M12914.88 6698.49c21,779 41.99,1558.01 62.99,2337.01"/>
   <path class="fil2 str0" d="M16235.41 6839c7.6,180.37 15.22,360.72 31.87,719.97 16.66,359.25 42.35,897.37 68.06,1435.5"/>
   <path class="fil2 str0" d="M17723.81 6866.46c34.67,190.87 69.35,381.73 91.21,730.3 21.87,348.57 30.91,854.83 39.97,1361.1"/>
   <path class="fil2 str0" d="M17799 7389.31c-513.64,-10.35 -1027.29,-20.72 -1540.94,-31.07"/>
   <path class="fil2 str0" d="M16335.34 8994.47c21.27,1146.17 42.55,2292.33 63.82,3438.5"/>
   <path class="fil2 str0" d="M17898.66 12271.9c-14.56,-1104.68 -29.11,-2209.36 -43.67,-3314.04"/>
   <path class="fil0 str0" d="M2525.01 7010.39c-25.72,74.09 -25.72,220.77 -272.95,285.79 -247.24,65.03 -741.71,48.39 -1010.11,57.46 -268.41,9.07 -310.74,43.86 -340.99,129.3 -30.24,85.43 -48.38,221.52 -61.23,385.59 -12.86,164.07 -20.42,356.1 -4.54,475.56 15.87,119.46 55.18,166.35 91.48,169.37 36.29,3.02 69.56,-37.81 105.1,-160.3 35.53,-122.48 73.33,-326.61 101.31,-471.02 27.97,-144.41 46.12,-229.09 42.34,-271.43 -3.78,-42.34 -29.49,-42.34 -40.83,-59.72 -11.34,-17.4 -8.32,-52.18 62,-71.08 70.31,-18.9 207.92,-21.93 409.03,-17.39 201.11,4.54 465.74,16.63 647.96,18.15 182.21,1.51 282.01,-7.57 334.93,-25.71 52.93,-18.15 58.98,-45.36 62,-133.82 3.03,-88.46 3.03,-238.17 -22.68,-312.26 -25.71,-74.1 -77.12,-72.59 -102.82,1.51z"/>
   <path class="fil0 str0" d="M2421.57 6857.07c35.25,-37.68 74.67,-3.43 94.41,30.03 19.74,33.45 19.81,66.08 -21.77,311.81 -41.59,245.73 -124.83,704.53 -217.86,1324.06 -93.03,619.54 -195.85,1399.8 -251.8,1800.52 -55.95,400.72 -65.02,421.88 -88.46,433.22 -23.44,11.34 -61.24,12.86 -95.27,18.91 -34.02,6.05 -64.26,16.63 -97.04,34.02 -32.79,17.39 -68.11,41.58 -80.97,-1.99 -12.87,-43.58 -3.28,-154.94 91.39,-701.26 94.66,-546.33 274.4,-1527.63 383.57,-2098.86 109.16,-571.23 147.77,-732.39 182.61,-867.78 34.84,-135.38 65.93,-245 101.19,-282.68z"/>
   <path class="fil0 str0" d="M1664.78 11369.87c40.21,-34.77 120.98,-69.55 178.01,-90.35 57.01,-20.79 90.28,-27.6 105.78,-5.67 15.5,21.92 13.23,72.58 7.56,142.89 -5.67,70.32 -14.74,160.29 -17.77,244.22 -3.02,83.92 0,161.8 -6.8,219.25 -6.81,57.47 -23.44,94.52 -61.25,121.74 -37.8,27.22 -96.77,44.6 -135.03,62.34 -38.25,17.73 -55.79,35.81 -70.67,-62.49 -14.89,-98.29 -27.12,-312.95 -33.41,-437.67 -6.29,-124.71 -6.64,-159.48 33.58,-194.26z"/>
   <g>
    <circle class="fil0 str0" cx="5234.93" cy="13059.7" r="960.15"/>
    <circle class="fil1 str0" cx="5234.93" cy="13059.7" r="720.11"/>
   </g>
   <g>
    <circle class="fil0 str0" cx="14768.9" cy="12503.62" r="857.28"/>
    <circle class="fil1 str0" cx="14768.9" cy="12503.62" r="642.96"/>
   </g>
  </g>
 </g>
</svg>
