<?xml version="1.0" encoding="UTF-8"?>
<!DOCTYPE svg PUBLIC "-//W3C//DTD SVG 1.1//EN" "http://www.w3.org/Graphics/SVG/1.1/DTD/svg11.dtd">
<!-- Creator: CorelDRAW 2020 (64-Bit) -->
<svg xmlns="http://www.w3.org/2000/svg" xml:space="preserve" width="200mm" height="200mm" version="1.1" style="shape-rendering:geometricPrecision; text-rendering:geometricPrecision; image-rendering:optimizeQuality; fill-rule:evenodd; clip-rule:evenodd"
viewBox="0 0 20000 20000"
 xmlns:xlink="http://www.w3.org/1999/xlink"
 xmlns:xodm="http://www.corel.com/coreldraw/odm/2003">
 <defs>
  <style type="text/css">
   <![CDATA[
    .str0 {stroke:#C7D8E3;stroke-width:10;stroke-miterlimit:22.9256}
    .str1 {stroke:white;stroke-width:10;stroke-miterlimit:22.9256}
    .fil1 {fill:none}
    .fil4 {fill:#C7D8E3}
    .fil3 {fill:white}
    .fil0 {fill:white}
    .fil2 {fill:#C7D8E3;fill-rule:nonzero}
   ]]>
  </style>
 </defs>
 <g id="Layer_x0020_1">
  <metadata id="CorelCorpID_0Corel-Layer"/>
  <circle class="fil0 str0" cx="6449.17" cy="7550.83" r="2022.9"/>
  <path class="fil0 str0" d="M5100.57 9923.64l2697.2 0c1483.46,0 2697.21,1213.74 2697.21,2697.21l0 3573.87 -8091.61 0 0 -3573.87c0,-1483.47 1213.74,-2697.21 2697.2,-2697.21z"/>
  <line class="fil1 str0" x1="8472.02" y1="16194.71" x2="8472.02" y2= "12418.63" />
  <line class="fil1 str0" x1="4426.33" y1="16194.73" x2="4426.33" y2= "12418.65" />
  <path class="fil2 str0" d="M6035.75 10517.54l404.58 775.57 404.58 -775.57 -809.16 0zm202.28 387.79m404.58 0m-202.28 -387.79"/>
  <path class="fil2 str0" d="M6053.47 14317.17l404.58 -2533.09 404.59 2533.09 -809.17 0zm202.28 -1266.54m404.59 0m-202.29 1266.54"/>
  <rect class="fil3 str0" x="13553.2" y="5950.52" width="2724.44" height="2895.03"/>
  <rect class="fil3 str0" x="13553.2" y="9621.42" width="2724.44" height="2895.03"/>
  <rect class="fil3 str0" x="13553.2" y="13292.32" width="2724.44" height="2895.03"/>
  <g id="_1741407647568">
   <path class="fil4 str1" d="M14569.95 10333c62.04,172.52 160.14,422.95 283.59,538.09 1755.8,-1544.1 2177.82,-2164.71 4290.87,-3197.32 -1722.02,1167.04 -962.5,541.65 -2530.09,2043.73 -1218.28,1167.35 -1737.52,2490.94 -2373.81,742.68 -25.7,-124.42 27.27,-253.75 118.23,-288.89 90.96,-35.14 185.52,37.29 211.21,161.71zm261.53 557.44c-10.15,5.41 -19.54,14.19 -29.56,25.99l29.56 -25.99z"/>
  </g>
  <path class="fil1" d="M14405.23 10396.59c39.49,191.08 372.93,864.82 510.21,672.33 9.83,-13.82 1398.23,-1246.85 1623.19,-1485.12 646.36,-684.56 1783.74,-1654.32 2605.78,-1910.03"/>
  <g id="_1741407647520">
   <path class="fil4 str1" d="M14062.53 14073.54c62.04,172.52 160.14,422.95 283.58,538.09 1755.8,-1544.1 2177.83,-2164.71 4290.88,-3197.32 -1722.02,1167.04 -962.51,541.65 -2530.09,2043.73 -1218.28,1167.35 -1737.52,2490.94 -2373.81,742.68 -25.7,-124.42 27.26,-253.75 118.23,-288.89 90.96,-35.14 185.52,37.29 211.21,161.71zm261.53 557.44c-10.16,5.41 -19.54,14.19 -29.56,25.99l29.56 -25.99z"/>
  </g>
  <path class="fil1" d="M13897.81 14137.13c39.48,191.08 372.93,864.82 510.2,672.33 9.84,-13.82 1398.24,-1246.85 1623.2,-1485.12 646.36,-684.56 1783.74,-1654.32 2605.78,-1910.03"/>
  <g id="_1741407643872">
   <path class="fil4 str1" d="M14317.5 7139c62.04,172.52 160.14,422.95 283.58,538.09 1755.8,-1544.1 2177.83,-2164.7 4290.88,-3197.32 -1722.02,1167.05 -962.51,541.65 -2530.09,2043.73 -1218.28,1167.35 -1737.52,2490.95 -2373.81,742.68 -25.7,-124.41 27.26,-253.74 118.23,-288.89 90.96,-35.14 185.52,37.3 211.21,161.71zm261.53 557.44c-10.15,5.41 -19.54,14.2 -29.56,25.99l29.56 -25.99z"/>
  </g>
  <path class="fil1" d="M14152.78 7202.59c39.48,191.08 372.93,864.83 510.2,672.34 9.84,-13.83 1398.24,-1246.86 1623.2,-1485.12 646.36,-684.56 1783.74,-1654.33 2605.78,-1910.04"/>
 </g>
</svg>
