<?xml version="1.0" encoding="UTF-8"?>
<!DOCTYPE svg PUBLIC "-//W3C//DTD SVG 1.1//EN" "http://www.w3.org/Graphics/SVG/1.1/DTD/svg11.dtd">
<!-- Creator: CorelDRAW 2020 (64-Bit) -->
<svg xmlns="http://www.w3.org/2000/svg" xml:space="preserve" width="200mm" height="200mm" version="1.1" style="shape-rendering:geometricPrecision; text-rendering:geometricPrecision; image-rendering:optimizeQuality; fill-rule:evenodd; clip-rule:evenodd"
viewBox="0 0 20000 20000"
 xmlns:xlink="http://www.w3.org/1999/xlink"
 xmlns:xodm="http://www.corel.com/coreldraw/odm/2003">
 <defs>
  <style type="text/css">
   <![CDATA[
    .str0 {stroke:white;stroke-width:10;stroke-miterlimit:22.9256}
    .fil1 {fill:#8EB1C7}
    .fil0 {fill:white}
   ]]>
  </style>
 </defs>
 <g id="Layer_x0020_1">
  <metadata id="CorelCorpID_0Corel-Layer"/>
  <g id="_1741523934176">
   <path class="fil0 str0" d="M1787.63 9438.31c550.23,-702.88 1618.6,-2020.24 2257.19,-2727.13 638.6,-706.89 847.47,-803.27 1044.27,-876.3 196.79,-73.05 381.55,-122.72 2498.18,-147.55 2116.63,-24.85 6165.15,-24.85 8213.5,-24.85 2048.35,0 2096.53,0 2104.57,0 8.03,0 -24.09,0 -80.32,117.22 -56.23,117.2 -136.56,351.64 -24.12,890.58 112.47,538.92 417.71,1382.38 602.46,1808.12 184.77,425.73 249.03,433.76 345.41,429.75 96.4,-4.02 224.93,-20.09 208.87,44.18 -16.07,64.24 -176.73,208.84 -257.07,522.12 -80.31,313.28 -80.31,795.24 -76.3,1088.44 4.02,293.19 12.06,397.62 70.73,437.79 58.67,40.15 168.01,16.06 188.08,261.07 20.07,244.99 -49.07,759.08 -396.95,1160.72 -347.85,401.63 -974.39,690.83 -1524.64,851.49 -550.23,160.65 -1024.17,192.76 -1229.01,112.45 -204.82,-80.33 -140.58,-273.13 -140.58,-490.01 0,-216.88 -64.24,-457.86 -172.7,-682.77 -108.44,-224.92 -261.05,-433.78 -465.89,-582.39 -204.84,-148.6 -461.89,-236.95 -735,-265.06 -273.11,-28.12 -562.29,3.99 -779.19,72.28 -216.88,68.28 -361.46,172.69 -477.95,277.12 -116.47,104.44 -204.82,208.85 -285.15,349.42 -80.34,140.58 -152.62,317.31 -192.78,465.91 -40.17,148.61 -48.2,269.09 -52.23,393.61 -4.01,124.51 -4.01,253.02 -8.03,353.45 -4.01,100.41 -12.04,172.69 -984.01,196.79 -971.95,24.1 -2907.86,0 -3879.83,-44.18 -971.95,-44.19 -979.98,-108.44 -992.04,-240.98 -12.04,-132.54 -28.11,-333.37 -64.26,-538.19 -36.15,-204.84 -92.36,-413.7 -204.83,-594.42 -112.44,-180.74 -281.14,-333.37 -514.09,-461.89 -232.94,-128.53 -530.16,-232.94 -807.28,-269.08 -277.13,-36.16 -534.2,-4.05 -730.98,72.28 -196.81,76.3 -333.38,196.78 -425.75,329.34 -92.37,132.54 -140.57,277.12 -188.77,453.85 -48.2,176.72 -96.38,385.58 -120.48,582.39 -24.1,196.78 -24.1,381.55 -24.1,506.06 0,124.5 0,188.75 -172.71,224.91 -172.7,36.14 -518.11,44.17 -847.46,28.11 -329.34,-16.07 -642.61,-56.24 -863.51,-108.44 -220.91,-52.23 -349.42,-116.48 -425.73,-200.82 -76.32,-84.36 -100.42,-188.77 -146.16,-277.14 -45.74,-88.36 -113.14,-160.64 -146.82,-289.16 -33.7,-128.53 -33.7,-313.29 -33.7,-425.74 0,-112.47 0,-152.63 57.8,-196.81 57.78,-44.19 173.38,-92.37 219.12,-200.81 45.74,-108.46 21.64,-277.14 13.6,-469.92 -8.03,-192.79 0,-409.67 8.04,-586.39 8.03,-176.73 16.06,-313.28 36.16,-425.74 20.07,-112.47 52.19,-200.82 602.44,-903.68z"/>
   <path class="fil0 str0" d="M7482.76 7751.51c-28.1,1068.35 -12.04,3124.73 -24.1,4140.88 -12.04,1016.14 -52.2,992.04 -8.03,1008.11 44.19,16.06 172.71,72.3 780.19,103.41 607.51,31.11 1693.94,37.12 2280.34,0.98 586.39,-36.16 672.73,-114.47 703.84,-1153.69 31.12,-1039.22 7.02,-3039.37 -17.08,-4087.65 -24.1,-1048.27 -48.2,-1144.66 -140.58,-1184.82 -92.37,-40.17 -253.03,-24.1 -831.39,-24.1 -578.36,0 -1574.41,-16.07 -2108.59,16.06 -534.19,32.14 -606.47,112.45 -634.6,1180.82z"/>
   <path class="fil0 str0" d="M7772.02 7281.52c-44.18,409.66 -20.08,1229 12.06,1642.68 32.13,413.69 72.29,421.72 273.11,425.75 200.83,4 562.29,4 743.03,-24.1 180.74,-28.13 180.74,-84.34 180.74,-461.89 0,-377.54 0,-1076.38 -12.06,-1457.93 -12.04,-381.57 -36.14,-445.82 -192.78,-481.96 -156.64,-36.16 -445.82,-44.2 -646.65,-48.2 -200.81,-4.03 -313.26,-4.03 -357.45,405.65z"/>
   <path class="fil0 str0" d="M9788.24 7389.96c-44.18,389.58 -52.21,1128.59 -52.21,1518.19 0,389.59 8.03,429.74 75.12,448.63 67.09,18.89 193.22,16.52 369.93,20.54 176.73,4.01 404.05,14.41 517.7,-24.55 113.65,-38.98 113.65,-127.33 113.65,-488.81 0,-361.48 0,-996.07 4.01,-1357.55 4.02,-361.47 12.06,-449.82 -32.14,-494 -44.17,-44.19 -140.55,-44.19 -281.12,-52.22 -140.58,-8.03 -325.34,-24.1 -457.88,-12.04 -132.54,12.04 -212.87,52.21 -257.06,441.81z"/>
   <path class="fil0 str0" d="M11852.65 7104.79c-60.24,409.66 -68.27,1196.88 -68.27,1614.59 0,417.69 8.03,465.89 216.88,473.93 208.86,8.03 618.52,-24.1 1100.48,-28.11 481.98,-4.03 1036.24,20.07 1361.56,12.04 325.33,-8.03 421.72,-48.2 650.65,-433.76 228.94,-385.58 590.42,-1116.57 771.16,-1526.23 180.74,-409.67 180.74,-498.04 -240.98,-554.27 -421.72,-56.24 -1265.17,-80.32 -1919.84,-80.32 -654.66,0 -1120.57,24.08 -1409.75,52.21 -289.18,28.11 -401.63,60.24 -461.89,469.92z"/>
   <path class="fil1 str0" d="M16463.47 7035.17c-236.97,377.54 -606.47,1155.38 -803.27,1580.45 -196.81,425.07 -220.91,497.35 124.5,533.51 345.41,36.14 1060.32,36.14 1457.94,24.1 397.64,-12.06 477.95,-36.16 506.06,-116.49 28.12,-80.33 4.02,-216.88 -112.45,-614.5 -116.47,-397.63 -325.34,-1056.31 -461.9,-1389.66 -136.55,-333.37 -200.8,-341.4 -285.16,-356.8 -84.34,-15.39 -188.75,-38.16 -425.72,339.39z"/>
   <path class="fil1 str0" d="M3231.5 8508.51c-269.11,329.35 -359.48,409.66 -402.65,474.93 -43.17,65.27 -39.16,115.49 520.12,145.62 559.29,30.11 1673.83,40.15 2260.23,45.17 586.39,5.01 644.62,5.01 678.76,-30.13 34.14,-35.13 44.19,-105.43 57.23,-468.91 13.07,-363.48 29.13,-1020.15 49.21,-1393.67 20.09,-373.54 44.19,-463.91 38.16,-515.11 -6.01,-51.23 -42.17,-63.27 -324.32,-64.27 -282.15,-1.02 -810.32,9.04 -1117.57,17.07 -307.25,8.03 -393.61,14.04 -455.85,64.27 -62.27,50.2 -100.41,144.58 -343.39,480.95 -243,336.38 -690.85,914.74 -959.93,1244.08z"/>
   <path class="fil1 str0" d="M2693.29 8747.49c-50.2,-32.14 -140.57,-32.14 -191.78,-1 -51.2,31.13 -63.26,93.37 -78.31,219.9 -15.06,126.51 -33.15,317.29 -38.16,438.79 -5.03,121.48 3,173.7 46.19,205.84 43.18,32.11 121.49,44.17 175.71,43.17 54.23,-1.02 84.34,-15.07 97.41,-83.34 13.04,-68.29 9.03,-190.78 16.06,-310.25 7.02,-119.5 25.1,-235.99 29.13,-326.36 4.01,-90.37 -6.05,-154.62 -56.25,-186.75z"/>
   <path class="fil1 str0" d="M1352.77 10580.03c69.28,-7.03 179.74,-11.05 243.01,46.18 63.24,57.24 79.31,175.73 92.37,302.24 13.04,126.51 23.08,261.07 20.07,362.48 -3.02,101.41 -19.09,169.7 -71.3,221.91 -52.22,52.21 -140.57,88.36 -215.87,106.44 -75.31,18.07 -137.57,18.07 -167.68,-52.21 -30.13,-70.3 -28.13,-210.87 -28.13,-354.45 0,-143.6 -2,-290.2 -2,-391.61 0,-101.42 2,-157.64 17.07,-190.77 15.06,-33.14 43.17,-43.19 112.46,-50.21z"/>
   <circle class="fil0 str0" cx="5067.82" cy="12944.65" r="1275.12"/>
   <circle class="fil1 str0" cx="5067.82" cy="12944.65" r="728.64"/>
   <g>
    <circle class="fil0 str0" cx="14004.16" cy="12795.68" r="1275.12"/>
    <circle class="fil1 str0" cx="14004.16" cy="12795.68" r="728.64"/>
   </g>
   <rect class="fil1 str0" x="7600.98" y="6849.67" width="1656.45" height="2512.1"/>
   <rect class="fil1 str0" x="9449.65" y="6849.67" width="1656.45" height="2512.1"/>
   <path class="fil1 str0" d="M11742.27 6555.91c0,18.31 -0.18,86.79 -0.48,190.6 -1.79,616.68 -8.02,2480.21 -8.02,2480.21l3201.03 18.3 1200.18 -2496.92 181.66 -192.19 -4574.37 0z"/>
  </g>
 </g>
</svg>
