<?xml version="1.0" encoding="UTF-8"?>
<!DOCTYPE svg PUBLIC "-//W3C//DTD SVG 1.1//EN" "http://www.w3.org/Graphics/SVG/1.1/DTD/svg11.dtd">
<!-- Creator: CorelDRAW 2020 (64-Bit) -->
<svg xmlns="http://www.w3.org/2000/svg" xml:space="preserve" width="200mm" height="200mm" version="1.1" style="shape-rendering:geometricPrecision; text-rendering:geometricPrecision; image-rendering:optimizeQuality; fill-rule:evenodd; clip-rule:evenodd"
viewBox="0 0 20000 20000"
 xmlns:xlink="http://www.w3.org/1999/xlink"
 xmlns:xodm="http://www.corel.com/coreldraw/odm/2003">
 <defs>
  <style type="text/css">
   <![CDATA[
    .str0 {stroke:white;stroke-width:10;stroke-miterlimit:22.9256}
    .fil2 {fill:none}
    .fil1 {fill:#8EB1C7}
    .fil0 {fill:white}
   ]]>
  </style>
 </defs>
 <g id="Layer_x0020_1">
  <metadata id="CorelCorpID_0Corel-Layer"/>
  <g id="_1741413662256">
   <g>
    <path class="fil0 str0" d="M2142.35 12092.67c0,-452.53 0,-971.01 346.27,-1669.59 346.26,-698.6 1038.77,-1577.32 1385.04,-2016.66 346.26,-439.35 346.26,-439.35 895.43,-483.25 549.15,-43.92 1647.44,-131.74 2200.93,-162.46 553.48,-30.73 562.14,-4.39 567.01,478.89 4.87,483.25 5.93,1423.4 6.48,1893.49 0.53,470.08 0.53,470.08 1746.46,470.08 1745.93,0 5237.78,0 6995.06,0 1757.3,0 1780.01,0 1791.35,452.53 11.37,452.53 11.37,1357.6 11.37,1810.13 0,452.53 0,452.53 -444.18,452.53 -444.18,0 -1332.57,0 -1787.59,0 -455,0 -476.63,0 -487.47,-136.18 -10.81,-136.17 -10.81,-408.51 -93.04,-625.96 -82.24,-217.46 -246.72,-380.02 -482.62,-498.64 -235.89,-118.62 -543.18,-193.33 -850.5,-186.73 -307.3,6.59 -614.62,94.45 -826.71,221.88 -212.07,127.41 -328.95,294.35 -389.55,505.23 -60.58,210.86 -64.92,465.62 -67.07,593.01 -2.16,127.39 -2.16,127.39 -411.19,127.39 -409.02,0 -1227.07,0 -2170.64,0 -943.56,0 -2012.65,0 -2575.32,0 -562.67,0 -618.95,0 -651.4,-112 -32.47,-112.01 -41.13,-336.04 -119.04,-566.67 -77.92,-230.63 -225.07,-467.89 -328.95,-590.9 -103.89,-123.02 -164.47,-131.81 -450.13,-142.79 -285.69,-10.98 -796.42,-24.17 -1090.74,2.19 -294.34,26.36 -372.24,92.28 -445.81,239.46 -73.6,147.17 -142.84,375.65 -186.12,584.32 -43.29,208.65 -60.6,397.53 -404.16,491.96 -343.55,94.43 -1013.37,94.43 -1348.27,-98.85 -334.9,-193.29 -334.9,-579.88 -334.9,-1032.41z"/>
    <path class="fil1 str0" d="M3406.69 9551.63c-131.67,270.77 -131.12,352.86 456.81,372.58 587.92,19.71 1763.21,-22.96 2347.77,-57.8 584.55,-34.84 578.39,-61.81 566.62,-362.26 -11.77,-300.45 -29.15,-874.37 -60.64,-1166.71 -31.52,-292.36 -77.14,-303.15 -488.73,-270.16 -411.59,32.96 -1189.13,109.72 -1610.51,166.13 -421.38,56.42 -486.6,92.52 -651.16,340.27 -164.58,247.75 -428.48,707.19 -560.16,977.95z"/>
    <path class="fil1 str0" d="M6109.82 10406.74c-36.26,20.86 -42.75,69.2 -45.99,112.04 -3.26,42.82 -3.26,80.17 39.49,107.09 42.74,26.9 128.21,43.38 224.52,48.32 96.31,4.94 203.43,-1.66 264.03,-21.98 60.6,-20.33 74.66,-54.36 79.55,-96.09 4.86,-41.74 0.53,-91.18 -18.4,-125.21 -18.94,-34.06 -52.49,-52.75 -117.41,-55.48 -64.94,-2.75 -161.23,10.42 -242.38,13.73 -81.15,3.29 -147.17,-3.29 -183.41,17.58z"/>
    <path class="fil1 str0" d="M2298.83 10978.5c40.03,-15.94 104.1,-12.67 136.14,1.6 32.01,14.27 32.01,39.51 32.01,93.33 0,53.82 0,136.22 -1.61,220.81 -1.62,84.57 -4.88,171.32 -6.49,244.93 -1.63,73.59 -1.63,133.99 -20.03,167.5 -18.39,33.5 -55.2,40.08 -110.91,43.38 -55.73,3.29 -130.41,3.29 -158.18,-57.92 -27.78,-61.22 -8.7,-183.64 8.61,-298.42 17.32,-114.78 32.87,-221.92 48.65,-293.04 15.76,-71.13 31.76,-106.25 71.81,-122.17z"/>
    <path class="fil2 str0" d="M15543.01 12704.03c-75.01,-0.7 -150.04,-1.41 -225.04,-2.11"/>
   </g>
   <ellipse class="fil0 str0" cx="5467.88" cy="13520.28" rx="1177.84" ry="1195.58"/>
   <ellipse class="fil0 str0" cx="14049.83" cy="13645.35" rx="1177.84" ry="1195.58"/>
   <path class="fil0 str0" d="M8790.62 10799.6c6.5,-40.65 -12.99,-104.35 -42.2,-144.98 -29.21,-40.65 -68.18,-58.22 -104.97,-83.49 -36.79,-25.27 -71.42,-58.21 -104.95,-95.55 -33.54,-37.34 -66.01,-79.09 -100.62,-115.33 -34.63,-36.25 -71.44,-67 -95.23,-88.95 -23.81,-21.98 -34.65,-35.17 -42.21,-53.85 -7.57,-18.67 -11.91,-42.82 6.5,-494.25 18.4,-451.43 59.5,-1330.15 74.66,-1769.48 15.15,-439.36 4.32,-439.36 -11.9,-441.55 -16.23,-2.22 -37.89,-6.6 -61.68,7.69 -23.81,14.27 -49.78,47.2 -76.83,596.4 -27.05,549.19 -55.18,1614.63 -69.24,2155.04 -14.08,540.4 -14.08,555.76 -3.26,563.45 10.82,7.7 32.47,7.7 61.68,9.89 29.21,2.19 66,6.59 97.39,7.69 31.37,1.1 57.34,-1.12 93.05,-2.21 35.71,-1.1 81.15,-1.1 134.17,3.31 53.03,4.38 113.63,13.17 160.17,8.78 46.52,-4.4 78.97,-21.98 85.47,-62.61z"/>
   <path class="fil0 str0" d="M8415.2 7927.75c33.36,-17.41 98.73,-12.93 132.49,-21.68 33.75,-8.75 35.93,-30.71 39.18,-90.03 3.24,-59.32 7.56,-155.96 20.56,-206.47 12.97,-50.54 34.63,-54.94 51.94,-39.56 17.3,15.39 30.29,50.52 23.79,514.04 -6.49,463.51 -32.47,1355.4 -37.86,1805.73 -5.42,450.34 9.73,459.13 51.94,504.38 42.18,45.25 111.42,126.99 116.39,168.7 4.95,41.7 -54.36,43.38 -150.61,-20.84 -96.25,-64.25 -229.4,-194.41 -295.99,-259.49 -66.59,-65.08 -66.59,-65.08 -67.04,-106.2 -0.47,-41.15 -1.41,-123.45 -1.86,-164.58 -0.47,-41.14 -0.47,-41.14 50.8,-40.33 51.26,0.8 153.79,2.41 205.06,-7.75 51.26,-10.18 51.26,-32.16 49.1,-50.83 -2.16,-18.67 -6.5,-34.03 -57.16,-40.83 -50.67,-6.79 -147.69,-4.98 -196.19,-3.87 -48.53,1.1 -48.53,1.5 -47.57,-22.77 0.94,-24.27 2.85,-73.21 3.81,-97.68 0.96,-24.49 0.96,-24.49 48.53,-27.48 47.54,-2.99 142.65,-8.99 186.96,-40.53 44.31,-31.54 37.83,-88.65 41.07,-366.53 3.24,-277.89 16.23,-776.57 17.31,-1031.39 1.08,-254.82 -9.76,-265.81 -48.53,-268.17 -38.77,-2.35 -105.49,3.93 -138.84,7.08 -33.38,3.13 -33.38,3.13 -32.69,-16.52 0.69,-19.67 2.04,-58.98 35.41,-76.4z"/>
   <path class="fil0 str0" d="M1912.92 9399.62c10.35,9.6 27.78,14.54 37.06,29.11 9.25,14.54 10.36,38.69 13.09,69.74 2.7,31.03 7.07,68.91 13.34,91.42 6.25,22.52 14.43,29.67 72.21,34.34 57.75,4.66 165.09,6.87 296.15,7.69 131.05,0.81 285.82,0.28 372.73,0.28 86.92,0 105.98,0.53 111.43,10.44 5.46,9.88 -2.72,29.09 3.01,44.75 5.71,15.64 25.33,27.74 47.39,34.06 22.07,6.29 46.6,6.85 84.21,6.29 37.58,-0.55 88.28,-2.19 110.34,-10.42 22.07,-8.25 15.52,-23.07 -11.17,-34.05 -26.71,-10.98 -73.57,-18.14 -107.61,-28.56 -34.07,-10.44 -55.32,-24.17 -71.4,-37.9 -16.07,-13.73 -26.99,-27.46 -46.32,-35.41 -19.36,-7.97 -47.14,-10.18 -182.83,-11.81 -135.69,-1.66 -379.25,-2.75 -501.86,-9.07 -122.62,-6.32 -124.24,-17.85 -125.05,-35.97 -0.83,-18.13 -0.83,-42.84 13.62,-56.29 14.43,-13.45 43.3,-15.66 58.03,-18.39 14.71,-2.75 15.24,-6.06 15.8,-114.24 0.55,-108.2 1.08,-321.27 -6.53,-426.98 -7.63,-105.73 -23.45,-104.1 -36.24,-102.72 -12.81,1.37 -22.64,2.47 -51.5,62.07 -28.89,59.58 -76.85,177.64 -100.82,269.64 -23.98,91.98 -23.98,157.9 -22.34,197.99 1.62,40.09 4.9,54.36 15.26,63.99z"/>
   <rect class="fil0 str0" x="7837.77" y="5174.26" width="10232.33" height="5939.09" rx="272.02" ry="278.97"/>
   <circle class="fil1 str0" cx="14049.83" cy="13645.35" r="867.07"/>
   <circle class="fil1 str0" cx="5467.88" cy="13520.28" r="867.07"/>
  </g>
 </g>
</svg>
