<?xml version="1.0" encoding="UTF-8"?>
<!DOCTYPE svg PUBLIC "-//W3C//DTD SVG 1.1//EN" "http://www.w3.org/Graphics/SVG/1.1/DTD/svg11.dtd">
<!-- Creator: CorelDRAW 2020 (64-Bit) -->
<svg xmlns="http://www.w3.org/2000/svg" xml:space="preserve" width="200mm" height="200mm" version="1.1" style="shape-rendering:geometricPrecision; text-rendering:geometricPrecision; image-rendering:optimizeQuality; fill-rule:evenodd; clip-rule:evenodd"
viewBox="0 0 20000 20000"
 xmlns:xlink="http://www.w3.org/1999/xlink"
 xmlns:xodm="http://www.corel.com/coreldraw/odm/2003">
 <defs>
  <style type="text/css">
   <![CDATA[
    .str0 {stroke:white;stroke-width:10;stroke-miterlimit:22.9256}
    .fil2 {fill:none}
    .fil1 {fill:#8EB1C7}
    .fil0 {fill:white}
   ]]>
  </style>
 </defs>
 <g id="Layer_x0020_1">
  <metadata id="CorelCorpID_0Corel-Layer"/>
  <g id="_1740079658672">
   <g>
    <path class="fil0 str0" d="M1324.71 10833.54c5.6,-465.82 12.01,-999.52 397.07,-1714.08 385.07,-714.59 1148.76,-1610.05 1530.61,-2057.76 381.86,-447.74 381.86,-447.74 979.4,-485.75 597.52,-38.03 1792.55,-114.08 2394.62,-138.48 602.07,-24.4 611.16,2.82 610.48,500.35 -0.69,497.5 -11.16,1465.26 -16.38,1949.15 -5.23,483.89 -5.23,483.89 1892.76,506.69 1897.99,22.81 5693.97,68.41 7604.29,91.36 1910.35,22.95 1935.04,23.25 1941.78,489.21 6.76,465.96 -4.43,1397.6 -10.03,1863.42 -5.6,465.81 -5.6,465.81 -488.47,460.01 -482.86,-5.8 -1448.62,-17.41 -1943.27,-23.35 -494.63,-5.94 -518.14,-6.22 -528.24,-146.54 -10.07,-140.32 -6.71,-420.64 -93.41,-645.56 -86.71,-224.91 -263.51,-394.39 -518.49,-519.58 -254.96,-125.18 -588.1,-206.09 -922.26,-203.32 -334.14,2.78 -669.31,89.2 -901.45,217.6 -232.12,128.38 -361.24,298.7 -429.73,514.98 -68.46,216.26 -76.33,478.44 -80.25,609.54 -3.92,131.1 -3.92,131.1 -448.57,125.76 -444.65,-5.34 -1333.94,-16.03 -2359.69,-28.35 -1025.75,-12.32 -2187.94,-26.29 -2799.62,-33.64 -611.68,-7.34 -672.86,-8.08 -706.75,-123.8 -33.91,-115.72 -40.56,-346.44 -122.4,-584.85 -81.85,-238.42 -238.88,-484.57 -350.3,-612.54 -111.41,-128 -177.16,-137.83 -487.56,-152.87 -310.44,-15.03 -865.48,-35.28 -1185.77,-11.98 -320.3,23.29 -405.79,90.12 -487.6,240.66 -81.82,150.53 -159.92,384.81 -209.55,599.04 -49.64,214.21 -70.8,408.41 -445.44,501.13 -374.65,92.71 -1102.8,83.97 -1464.48,-119.37 -361.67,-203.33 -356.89,-601.27 -351.3,-1067.08z"/>
    <path class="fil1 str0" d="M2730.6 8234.42c-146.49,277 -146.91,361.51 491.98,389.48 638.88,27.97 1917.06,-0.6 2552.97,-28.83 635.89,-28.23 629.52,-56.08 620.44,-365.49 -9.07,-309.42 -20.87,-900.42 -51.49,-1201.75 -30.65,-301.36 -80.12,-313.06 -527.96,-284.48 -447.84,28.56 -1294.04,97.41 -1752.82,149.98 -458.78,52.57 -530.13,88.88 -712.09,341.75 -181.97,252.87 -474.54,722.35 -621.03,999.34z"/>
    <path class="fil1 str0" d="M5658.58 9149.93c-39.68,21 -47.34,70.68 -51.39,114.73 -4.07,44.04 -4.53,82.48 41.61,110.75 46.13,28.25 138.84,46.33 243.48,52.67 104.63,6.34 221.17,0.95 287.3,-19.18 66.13,-20.13 81.83,-54.98 87.66,-97.86 5.8,-42.91 1.7,-93.86 -18.45,-129.14 -20.17,-35.3 -56.41,-54.97 -126.95,-58.63 -70.56,-3.68 -175.4,8.62 -263.66,10.96 -88.26,2.33 -159.95,-5.3 -199.6,15.7z"/>
    <path class="fil1 str0" d="M1508.6 9688.71c43.71,-15.89 113.32,-11.69 147.97,3.42 34.63,15.1 34.32,41.09 33.65,96.49 -0.66,55.4 -1.68,140.22 -4.48,227.27 -2.81,87.03 -7.43,176.29 -10.09,252.04 -2.68,75.72 -3.43,137.89 -23.84,172.15 -20.41,34.24 -60.5,40.53 -121.11,43.21 -60.62,2.65 -141.8,1.68 -171.24,-61.69 -29.44,-63.38 -7.18,-189.15 13.06,-307.07 20.24,-117.92 38.47,-228 56.5,-301 18.02,-73.02 35.85,-108.95 79.58,-124.82z"/>
    <path class="fil2 str0" d="M15884.94 11637.86c-81.54,-1.7 -163.09,-3.42 -244.62,-5.11"/>
   </g>
   <ellipse class="fil0 str0" transform="matrix(2.3183 0.0278517 -0.0262969 2.18889 4922.22 12346.5)" rx="552.31" ry="562.24"/>
   <ellipse class="fil0 str0" transform="matrix(2.3183 0.0278517 -0.0262969 2.18889 14250.1 12587.3)" rx="552.31" ry="562.24"/>
   <path class="fil0 str0" d="M8568 9589.34c7.57,-41.76 -12.83,-107.58 -44.09,-149.79 -31.25,-42.22 -73.39,-60.82 -113.07,-87.31 -39.68,-26.49 -76.92,-60.85 -112.91,-99.72 -36,-38.88 -70.78,-82.28 -107.96,-120.04 -37.2,-37.76 -76.83,-69.89 -102.42,-92.8 -25.62,-22.94 -37.23,-36.66 -45.22,-55.98 -8,-19.32 -12.42,-44.23 13.18,-508.68 25.58,-464.44 81.13,-1368.41 103.04,-1820.45 21.91,-452.05 10.13,-452.19 -7.47,-454.66 -17.63,-2.49 -41.11,-7.29 -67.15,7.11 -26.06,14.38 -54.7,47.94 -90.9,612.9 -36.2,564.96 -79.96,1661.31 -101.92,2217.4 -21.98,556.08 -22.17,571.89 -10.51,579.95 11.66,8.06 35.2,8.34 66.93,10.98 31.73,2.64 71.66,7.65 105.77,9.19 34.09,1.54 62.35,-0.4 101.18,-1.06 38.84,-0.66 88.24,-0.07 145.82,5.16 57.59,5.2 123.36,15.04 174.01,11.13 50.63,-3.92 86.13,-21.59 93.69,-63.33z"/>
   <path class="fil0 str0" d="M8195.4 6628.29c36.48,-17.49 107.48,-12.03 144.3,-20.59 36.79,-8.56 39.43,-31.14 43.71,-92.16 4.25,-61.02 10.14,-160.44 24.89,-212.27 14.73,-51.85 38.33,-56.1 56.96,-40.03 18.61,16.06 32.3,52.39 19.51,529.44 -12.8,477.03 -52.06,1394.75 -63.5,1858.24 -11.46,463.48 4.91,472.73 50.23,519.86 45.3,47.13 119.56,132.17 124.44,175.17 4.86,42.99 -59.63,43.94 -163.46,-23.42 -103.84,-67.39 -246.98,-203.11 -318.57,-270.97 -71.58,-67.86 -71.58,-67.86 -71.56,-110.2 0,-42.36 -0.01,-127.08 0.01,-169.43 -0.01,-42.36 -0.01,-42.36 55.73,-40.85 55.71,1.49 167.15,4.49 223.01,-5.3 55.85,-9.81 56.12,-32.43 54,-51.68 -2.11,-19.25 -6.64,-35.12 -61.63,-42.78 -55,-7.65 -160.49,-7.05 -213.23,-6.54 -52.77,0.5 -52.77,0.91 -51.43,-24.06 1.33,-24.97 4,-75.32 5.35,-100.5 1.35,-25.2 1.35,-25.2 53.09,-27.65 51.73,-2.46 155.19,-7.39 203.75,-39.28 48.55,-31.89 42.22,-90.76 49.18,-376.75 6.95,-286.01 27.25,-799.15 31.57,-1061.44 4.33,-262.28 -7.32,-273.75 -49.43,-276.67 -42.12,-2.93 -114.74,2.66 -151.03,5.47 -36.32,2.78 -36.32,2.78 -35.33,-17.44 0.99,-20.23 2.95,-60.68 39.44,-78.17z"/>
   <path class="fil0 str0" d="M1571.28 8147.84c11.12,10.03 30.02,15.34 39.92,30.46 9.88,15.09 10.78,39.96 13.37,71.96 2.56,31.97 6.84,71.02 13.37,94.28 6.52,23.26 15.33,30.73 78.07,36.28 62.73,5.55 179.39,9.23 321.86,11.79 142.45,2.55 310.7,4.02 405.19,5.15 94.48,1.14 115.2,1.94 121.01,12.2 5.81,10.25 -3.33,29.91 2.71,46.11 6.02,16.18 27.19,28.88 51.1,35.67 23.91,6.77 50.57,7.67 91.46,7.59 40.87,-0.09 96,-1.11 120.08,-9.29 24.09,-8.2 17.16,-23.55 -11.72,-35.2 -28.9,-11.65 -79.75,-19.63 -116.63,-30.8 -36.91,-11.19 -59.84,-25.6 -77.15,-39.94 -17.3,-14.35 -29,-28.62 -49.92,-37.06 -20.94,-8.45 -51.11,-11.09 -198.6,-14.55 -147.49,-3.47 -412.25,-7.78 -545.46,-15.89 -133.22,-8.1 -134.84,-20 -135.5,-38.65 -0.68,-18.68 -0.37,-44.11 15.51,-57.77 15.85,-13.65 47.26,-15.55 63.31,-18.17 16.02,-2.64 16.64,-6.04 18.58,-117.39 1.94,-111.37 5.16,-330.69 -1.81,-439.6 -6.99,-108.93 -24.2,-107.46 -38.13,-106.21 -13.94,1.25 -24.64,2.25 -56.75,63.22 -32.14,60.95 -85.75,181.86 -112.93,276.24 -27.21,94.37 -28.03,162.22 -26.74,203.51 1.27,41.29 4.66,56.02 15.8,66.06z"/>
   <ellipse class="fil1 str0" transform="matrix(1.61598 0.0201986 -0.0183303 1.58742 14250.1 12587.3)" rx="552.31" ry="562.24"/>
   <ellipse class="fil1 str0" transform="matrix(1.61598 0.0201986 -0.0183303 1.58742 4922.22 12346.5)" rx="552.31" ry="562.24"/>
  </g>
 </g>
</svg>
