<?xml version="1.0" encoding="UTF-8"?>
<!DOCTYPE svg PUBLIC "-//W3C//DTD SVG 1.1//EN" "http://www.w3.org/Graphics/SVG/1.1/DTD/svg11.dtd">
<!-- Creator: CorelDRAW 2020 (64-Bit) -->
<svg xmlns="http://www.w3.org/2000/svg" xml:space="preserve" width="200mm" height="200mm" version="1.1" style="shape-rendering:geometricPrecision; text-rendering:geometricPrecision; image-rendering:optimizeQuality; fill-rule:evenodd; clip-rule:evenodd"
viewBox="0 0 20000 20000"
 xmlns:xlink="http://www.w3.org/1999/xlink"
 xmlns:xodm="http://www.corel.com/coreldraw/odm/2003">
 <defs>
  <style type="text/css">
   <![CDATA[
    .str0 {stroke:white;stroke-width:10;stroke-miterlimit:22.9256}
    .fil1 {fill:#8EB1C7}
    .fil0 {fill:white}
   ]]>
  </style>
 </defs>
 <g id="Layer_x0020_1">
  <metadata id="CorelCorpID_0Corel-Layer"/>
  <g id="_1741402883536">
   <g>
    <path class="fil0 str0" d="M1597.28 10352.15c555.01,-708.98 1632.65,-2037.78 2276.79,-2750.8 644.14,-713.03 854.81,-810.24 1053.33,-883.9 198.49,-73.68 384.86,-123.79 2519.85,-148.83 2135,-25.07 6218.65,-25.07 8284.78,-25.07 2066.12,0 2114.72,0 2122.82,0 8.11,0 -24.29,0 -81.01,118.24 -56.72,118.22 -137.75,354.69 -24.32,898.31 113.44,543.6 421.33,1394.37 607.68,1823.81 186.37,429.42 251.19,437.52 348.41,433.48 97.24,-4.06 226.88,-20.27 210.68,44.56 -16.21,64.8 -178.27,210.65 -259.3,526.65 -81.01,316 -81.01,802.14 -76.97,1097.89 4.06,295.73 12.17,401.07 71.35,441.58 59.18,40.5 169.46,16.21 189.71,263.34 20.25,247.11 -49.5,765.67 -400.39,1170.79 -350.87,405.12 -982.84,696.82 -1537.87,858.88 -555.01,162.04 -1033.06,194.44 -1239.68,113.42 -206.6,-81.02 -141.79,-275.5 -141.79,-494.26 0,-218.76 -64.81,-461.83 -174.21,-688.69 -109.38,-226.87 -263.31,-437.55 -469.93,-587.44 -206.62,-149.9 -465.89,-239.01 -741.38,-267.36 -275.48,-28.37 -567.17,4.02 -785.95,72.91 -218.76,68.86 -364.59,174.18 -482.09,279.52 -117.49,105.34 -206.6,210.66 -287.63,352.45 -81.03,141.79 -153.94,320.06 -194.46,469.96 -40.51,149.89 -48.61,271.42 -52.67,397.02 -4.05,125.59 -4.05,255.22 -8.11,356.51 -4.04,101.28 -12.14,174.19 -992.54,198.5 -980.39,24.31 -2933.09,0 -3913.5,-44.56 -980.38,-44.57 -988.48,-109.38 -1000.65,-243.07 -12.14,-133.69 -28.35,-336.26 -64.82,-542.86 -36.46,-206.62 -93.16,-417.29 -206.6,-599.58 -113.42,-182.31 -283.58,-336.27 -518.55,-465.9 -234.97,-129.64 -534.76,-234.96 -814.29,-271.42 -279.54,-36.47 -538.83,-4.08 -737.33,72.91 -198.51,76.97 -336.26,198.5 -429.44,332.2 -93.17,133.69 -141.79,279.53 -190.41,457.79 -48.61,178.25 -97.21,388.93 -121.52,587.44 -24.31,198.5 -24.31,384.86 -24.31,510.45 0,125.59 0,190.39 -174.21,226.87 -174.2,36.45 -522.61,44.55 -854.81,28.35 -332.21,-16.21 -648.18,-56.72 -871.01,-109.38 -222.82,-52.68 -352.45,-117.49 -429.42,-202.56 -76.98,-85.09 -101.29,-190.41 -147.43,-279.54 -46.14,-89.14 -114.12,-162.04 -148.1,-291.67 -33.99,-129.65 -33.99,-316.02 -33.99,-429.44 0,-113.44 0,-153.96 58.3,-198.51 58.29,-44.58 174.89,-93.18 221.03,-202.56 46.13,-109.4 21.82,-279.54 13.72,-474 -8.1,-194.47 0,-413.23 8.1,-591.47 8.11,-178.27 16.21,-316 36.48,-429.44 20.24,-113.44 52.64,-202.56 607.66,-911.52z"/>
    <path class="fil0 str0" d="M7341.84 8650.71c-28.35,1077.62 -12.14,3151.85 -24.31,4176.81 -12.14,1024.96 -52.66,1000.65 -8.1,1016.86 44.57,16.2 174.2,72.92 786.96,104.31 612.78,31.38 1708.64,37.44 2300.12,0.99 591.48,-36.47 678.57,-115.46 709.96,-1163.7 31.38,-1048.24 7.07,-3065.75 -17.24,-4123.13 -24.31,-1057.37 -48.62,-1154.58 -141.79,-1195.1 -93.18,-40.51 -255.24,-24.31 -838.61,-24.31 -583.38,0 -1588.07,-16.2 -2126.89,16.21 -538.82,32.41 -611.73,113.42 -640.1,1191.06z"/>
    <path class="fil0 str0" d="M7633.6 8176.64c-44.55,413.21 -20.25,1239.66 12.17,1656.94 32.41,417.27 72.92,425.37 275.48,429.44 202.57,4.04 567.17,4.04 749.48,-24.31 182.3,-28.37 182.3,-85.08 182.3,-465.9 0,-380.82 0,-1085.72 -12.16,-1470.58 -12.14,-384.88 -36.45,-449.69 -194.45,-486.14 -158,-36.48 -449.69,-44.58 -652.26,-48.62 -202.56,-4.06 -315.98,-4.06 -360.56,409.17z"/>
    <path class="fil0 str0" d="M9667.32 8286.02c-44.56,392.97 -52.66,1138.38 -52.66,1531.37 0,392.97 8.1,433.46 75.77,452.52 67.67,19.05 194.9,16.66 373.14,20.72 178.27,4.04 407.56,14.54 522.19,-24.77 114.64,-39.32 114.64,-128.43 114.64,-493.05 0,-364.61 0,-1004.71 4.04,-1369.32 4.06,-364.62 12.17,-453.73 -32.41,-498.29 -44.56,-44.57 -141.77,-44.57 -283.57,-52.68 -141.79,-8.1 -328.16,-24.31 -461.85,-12.14 -133.69,12.14 -214.72,52.66 -259.29,445.64z"/>
    <path class="fil0 str0" d="M11749.65 7998.38c-60.76,413.21 -68.87,1207.26 -68.87,1628.6 0,421.32 8.11,469.93 218.77,478.04 210.67,8.1 623.89,-24.31 1110.03,-28.35 486.16,-4.07 1045.22,20.24 1373.37,12.14 328.16,-8.1 425.37,-48.62 656.3,-437.52 230.93,-388.93 595.54,-1126.26 777.85,-1539.47 182.3,-413.24 182.3,-502.37 -243.07,-559.09 -425.38,-56.72 -1276.16,-81.01 -1936.5,-81.01 -660.35,0 -1130.3,24.29 -1421.99,52.66 -291.69,28.35 -405.11,60.76 -465.89,474z"/>
    <path class="fil0 str0" d="M16400.47 7928.15c-239.02,380.82 -611.72,1165.41 -810.24,1594.17 -198.51,428.76 -222.82,501.67 125.59,538.14 348.41,36.45 1069.52,36.45 1470.59,24.31 401.08,-12.17 482.09,-36.47 510.45,-117.5 28.37,-81.03 4.06,-218.77 -113.43,-619.83 -117.48,-401.09 -328.16,-1065.48 -465.91,-1401.72 -137.73,-336.27 -202.54,-344.37 -287.63,-359.9 -85.07,-15.52 -190.39,-38.49 -429.42,342.33z"/>
    <path class="fil1 str0" d="M3053.68 9414.28c-271.44,332.2 -362.59,413.21 -406.14,479.05 -43.54,65.83 -39.5,116.49 524.64,146.88 564.14,30.37 1688.35,40.5 2279.83,45.57 591.48,5.05 650.23,5.05 684.66,-30.39 34.43,-35.45 44.57,-106.35 57.73,-472.99 13.17,-366.63 29.38,-1029 49.63,-1405.76 20.26,-376.78 44.57,-467.93 38.49,-519.58 -6.06,-51.67 -42.53,-63.81 -327.13,-64.82 -284.6,-1.03 -817.35,9.11 -1127.27,17.21 -309.91,8.1 -397.02,14.17 -459.81,64.83 -62.8,50.63 -101.28,145.83 -346.37,485.13 -245.11,339.29 -696.83,922.67 -968.26,1254.87z"/>
    <path class="fil1 str0" d="M2510.8 9655.33c-50.63,-32.41 -141.79,-32.41 -193.44,-1.01 -51.65,31.4 -63.81,94.18 -78.99,221.81 -15.19,127.61 -33.44,320.04 -38.49,442.6 -5.07,122.53 3.03,175.21 46.6,207.62 43.54,32.4 122.53,44.56 177.23,43.55 54.7,-1.03 85.07,-15.2 98.25,-84.06 13.15,-68.89 9.11,-192.43 16.2,-312.95 7.08,-120.53 25.32,-238.04 29.38,-329.19 4.05,-91.15 -6.1,-155.96 -56.74,-188.37z"/>
    <path class="fil1 str0" d="M1158.66 11503.78c69.87,-7.09 181.29,-11.15 245.11,46.58 63.79,57.73 80,177.25 93.17,304.86 13.16,127.61 23.28,263.34 20.25,365.62 -3.05,102.29 -19.26,171.18 -71.92,223.84 -52.67,52.66 -141.79,89.13 -217.75,107.36 -75.95,18.22 -138.76,18.22 -169.13,-52.66 -30.39,-70.91 -28.37,-212.7 -28.37,-357.53 0,-144.84 -2.02,-292.71 -2.02,-395 0,-102.31 2.02,-159.01 17.22,-192.43 15.19,-33.42 43.54,-43.57 113.44,-50.64z"/>
    <circle class="fil0 str0" cx="4905.94" cy="13888.92" r="1286.18"/>
    <circle class="fil1 str0" cx="4905.94" cy="13888.92" r="734.96"/>
    <g>
     <circle class="fil0 str0" cx="13919.83" cy="13738.65" r="1286.18"/>
     <circle class="fil1 str0" cx="13919.83" cy="13738.65" r="734.96"/>
    </g>
    <rect class="fil0 str0" x="7461.08" y="7741.04" width="1670.82" height="2533.9"/>
    <rect class="fil0 str0" x="9325.8" y="7741.04" width="1670.82" height="2533.9"/>
    <path class="fil0 str0" d="M11638.3 7444.73c0,18.47 -0.17,87.55 -0.48,192.26 -1.8,622.03 -8.09,2501.73 -8.09,2501.73l3228.81 18.46 1210.6 -2518.59 183.24 -193.86 -4614.08 0z"/>
   </g>
   <polygon class="fil0 str0" points="17892.08,6543.55 18916.4,9842.78 18917.66,12114.83 18008.37,12191.41 7324.01,10511.87 7341.84,6650.56 "/>
  </g>
 </g>
</svg>
