<?xml version="1.0" encoding="UTF-8"?>
<!DOCTYPE svg PUBLIC "-//W3C//DTD SVG 1.1//EN" "http://www.w3.org/Graphics/SVG/1.1/DTD/svg11.dtd">
<!-- Creator: CorelDRAW 2020 (64-Bit) -->
<svg xmlns="http://www.w3.org/2000/svg" xml:space="preserve" width="210mm" height="297mm" version="1.1" style="shape-rendering:geometricPrecision; text-rendering:geometricPrecision; image-rendering:optimizeQuality; fill-rule:evenodd; clip-rule:evenodd"
viewBox="0 0 21000 29700"
 xmlns:xlink="http://www.w3.org/1999/xlink"
 xmlns:xodm="http://www.corel.com/coreldraw/odm/2003">
 <defs>
  <style type="text/css">
   <![CDATA[
    .str0 {stroke:white;stroke-width:352.78;stroke-miterlimit:22.9256}
    .fil0 {fill:none}
   ]]>
  </style>
 </defs>
 <g id="Layer_x0020_1">
  <metadata id="CorelCorpID_0Corel-Layer"/>
  <path class="fil0 str0" d="M6939.57 8886.62l7283.43 0c1110.27,0 2010.67,1020.44 2010.67,2278.75l0 6747.27c0,1258.3 -900.4,2278.74 -2010.67,2278.74l-7283.43 0.01c-1110.26,-0.01 -2010.66,-1020.45 -2010.66,-2278.76l-0.01 -6747.26c0.01,-1258.31 900.41,-2278.75 2010.68,-2278.75z"/>
  <rect class="fil0 str0" transform="matrix(1.24751E-13 -4.71032 4.71032 1.24751E-13 7295.13 22622.3)" width="317.49" height="119.06"/>
  <rect class="fil0 str0" transform="matrix(1.24751E-13 -4.71032 4.71032 1.24751E-13 13306.6 22622.3)" width="317.49" height="119.06"/>
  <rect class="fil0 str0" transform="matrix(1.24751E-13 -4.71032 4.71032 1.24751E-13 10300.9 22622.3)" width="317.49" height="119.06"/>
  <rect class="fil0 str0" transform="matrix(1.24751E-13 -4.71032 4.71032 1.24751E-13 8798.01 22622.3)" width="317.49" height="119.06"/>
  <rect class="fil0 str0" transform="matrix(1.24751E-13 -4.71032 4.71032 1.24751E-13 11803.8 22622.3)" width="317.49" height="119.06"/>
  <path class="fil0 str0" d="M7243.04 9357.65l6676.49 0c1017.75,0 1843.11,935.41 1843.11,2088.86l0 6184.99c0,1153.44 -825.36,2088.85 -1843.11,2088.85l-6676.49 0.01c-1017.74,-0.01 -1843.1,-935.42 -1843.1,-2088.87l-0.01 -6184.98c0.01,-1153.45 825.37,-2088.86 1843.12,-2088.86z"/>
  <rect class="fil0 str0" x="2491.33" y="11252.85" width="1495.48" height="560.81"/>
  <rect class="fil0 str0" x="2491.33" y="17264.35" width="1495.48" height="560.81"/>
  <rect class="fil0 str0" x="2491.33" y="14258.59" width="1495.48" height="560.81"/>
  <rect class="fil0 str0" x="2491.33" y="12755.73" width="1495.48" height="560.81"/>
  <rect class="fil0 str0" x="2491.33" y="15761.49" width="1495.48" height="560.81"/>
  <rect class="fil0 str0" x="17175.72" y="11252.85" width="1495.48" height="560.81"/>
  <rect class="fil0 str0" x="17175.72" y="17264.35" width="1495.48" height="560.81"/>
  <rect class="fil0 str0" x="17175.72" y="14258.59" width="1495.48" height="560.81"/>
  <rect class="fil0 str0" x="17175.72" y="12755.73" width="1495.48" height="560.81"/>
  <rect class="fil0 str0" x="17175.72" y="15761.49" width="1495.48" height="560.81"/>
  <rect class="fil0 str0" transform="matrix(1.24751E-13 -4.71032 4.71032 1.24751E-13 7295.13 7951.24)" width="317.49" height="119.06"/>
  <rect class="fil0 str0" transform="matrix(1.24751E-13 -4.71032 4.71032 1.24751E-13 13306.6 7951.24)" width="317.49" height="119.06"/>
  <rect class="fil0 str0" transform="matrix(1.24751E-13 -4.71032 4.71032 1.24751E-13 10300.9 7951.24)" width="317.49" height="119.06"/>
  <rect class="fil0 str0" transform="matrix(1.24751E-13 -4.71032 4.71032 1.24751E-13 8798.01 7951.24)" width="317.49" height="119.06"/>
  <rect class="fil0 str0" transform="matrix(1.24751E-13 -4.71032 4.71032 1.24751E-13 11803.8 7951.24)" width="317.49" height="119.06"/>
 </g>
</svg>
