<?xml version="1.0" encoding="UTF-8"?>
<!DOCTYPE svg PUBLIC "-//W3C//DTD SVG 1.1//EN" "http://www.w3.org/Graphics/SVG/1.1/DTD/svg11.dtd">
<!-- Creator: CorelDRAW 2020 (64-Bit) -->
<svg xmlns="http://www.w3.org/2000/svg" xml:space="preserve" width="200mm" height="200mm" version="1.1" style="shape-rendering:geometricPrecision; text-rendering:geometricPrecision; image-rendering:optimizeQuality; fill-rule:evenodd; clip-rule:evenodd"
viewBox="0 0 20000 20000"
 xmlns:xlink="http://www.w3.org/1999/xlink"
 xmlns:xodm="http://www.corel.com/coreldraw/odm/2003">
 <defs>
  <style type="text/css">
   <![CDATA[
    .str0 {stroke:white;stroke-width:10;stroke-miterlimit:22.9256}
    .fil2 {fill:none}
    .fil1 {fill:#8EB1C7}
    .fil0 {fill:white}
   ]]>
  </style>
 </defs>
 <g id="Layer_x0020_1">
  <metadata id="CorelCorpID_0Corel-Layer"/>
  <g id="_1741596745424">
   <path class="fil0 str0" d="M2925.97 10888.53c4.56,-379.87 9.79,-815.11 323.81,-1397.84 314.02,-582.74 936.81,-1313 1248.22,-1678.1 311.4,-365.13 311.4,-365.13 798.7,-396.13 487.27,-31.02 1461.83,-93.04 1952.82,-112.94 490.99,-19.9 498.39,2.31 497.84,408.04 -0.56,405.72 -9.1,1194.93 -13.36,1589.54 -2.42,223.95 -3.33,320.77 279.12,366.06l-54.41 198.87 9101.22 1327.86c-1.91,196.34 -4.1,378.8 -5.72,513.49 -4.56,379.87 -4.56,379.87 -398.35,375.14 -393.77,-4.73 -1181.35,-14.19 -1584.74,-19.04 -403.37,-4.85 -422.55,-5.08 -430.78,-119.5 -8.21,-114.43 -5.47,-343.04 -76.18,-526.46 -70.7,-183.41 -214.89,-321.63 -422.82,-423.71 -207.92,-102.09 -479.6,-168.08 -752.11,-165.81 -272.49,2.26 -545.83,72.74 -735.13,177.45 -189.29,104.69 -294.6,243.59 -350.45,419.96 -55.83,176.36 -62.24,390.17 -65.44,497.08 -3.2,106.92 -3.2,106.92 -365.81,102.56 -362.61,-4.35 -1087.84,-13.07 -1924.33,-23.12 -836.5,-10.05 -1784.27,-21.43 -2283.1,-27.43 -498.83,-5.99 -548.72,-6.59 -576.36,-100.96 -27.65,-94.36 -33.07,-282.52 -99.81,-476.95 -66.75,-194.42 -194.81,-395.16 -285.67,-499.52 -90.86,-104.38 -144.47,-112.4 -397.61,-124.66 -253.16,-12.26 -705.8,-28.78 -966.99,-9.78 -261.21,18.99 -330.93,73.5 -397.64,196.26 -66.73,122.76 -130.42,313.82 -170.89,488.52 -40.48,174.69 -57.74,333.06 -363.26,408.67 -305.53,75.61 -899.34,68.48 -1194.28,-97.34 -294.95,-165.82 -291.05,-490.34 -286.49,-870.21z"/>
   <path class="fil1 str0" d="M4072.47 8768.95c-119.46,225.89 -119.8,294.81 401.22,317.61 521,22.81 1563.36,-0.49 2081.94,-23.51 518.58,-23.02 513.38,-45.73 505.98,-298.06 -7.4,-252.33 -17.03,-734.29 -42,-980.03 -24.99,-245.75 -65.33,-255.29 -430.55,-231.99 -365.21,23.29 -1055.29,79.44 -1429.43,122.31 -374.13,42.87 -432.32,72.48 -580.7,278.7 -148.4,206.21 -386.99,589.08 -506.46,814.97z"/>
   <path class="fil1 str0" d="M6460.24 9515.54c-32.35,17.13 -38.6,57.64 -41.9,93.57 -3.32,35.91 -3.7,67.26 33.93,90.31 37.62,23.04 113.23,37.78 198.56,42.96 85.33,5.17 180.36,0.77 234.29,-15.64 53.93,-16.42 66.73,-44.84 71.49,-79.81 4.73,-34.99 1.39,-76.54 -15.05,-105.31 -16.45,-28.79 -46,-44.84 -103.53,-47.82 -57.54,-3 -143.03,7.03 -215.01,8.94 -71.98,1.9 -130.44,-4.32 -162.78,12.8z"/>
   <path class="fil1 str0" d="M3075.93 9954.92c35.64,-12.96 92.41,-9.53 120.67,2.79 28.24,12.31 27.99,33.51 27.44,78.69 -0.54,45.18 -1.37,114.34 -3.65,185.33 -2.3,70.97 -6.06,143.77 -8.23,205.54 -2.19,61.76 -2.8,112.46 -19.44,140.4 -16.64,27.92 -49.34,33.05 -98.77,35.23 -49.44,2.17 -115.64,1.37 -139.65,-50.31 -24,-51.68 -5.85,-154.25 10.65,-250.41 16.51,-96.17 31.38,-185.94 46.08,-245.47 14.7,-59.55 29.23,-88.85 64.9,-101.79z"/>
   <path class="fil2 str0" d="M14799.86 11544.45c-66.49,-1.38 -133,-2.78 -199.49,-4.17"/>
   <ellipse class="fil0 str0" transform="matrix(1.89058 0.0227131 -0.0214452 1.78504 5859.75 12122.3)" rx="552.31" ry="562.24"/>
   <ellipse class="fil0 str0" transform="matrix(1.89058 0.0227131 -0.0214452 1.78504 13466.6 12318.7)" rx="552.31" ry="562.24"/>
   <g>
    <path class="fil0 str0" d="M8503.49 9985.17c6.17,-34.05 -10.47,-87.74 -35.96,-122.15 -25.48,-34.44 -59.85,-49.61 -92.21,-71.21 -32.36,-21.6 -62.73,-49.62 -92.07,-81.32 -29.37,-31.71 -57.73,-67.09 -88.05,-97.89 -30.33,-30.79 -62.65,-57 -83.52,-75.68 -20.89,-18.71 -30.37,-29.89 -36.88,-45.65 -6.53,-15.75 -10.13,-36.07 10.75,-414.83 20.86,-378.75 66.16,-1115.94 84.03,-1484.58 17.86,-368.65 8.26,-368.77 -6.1,-370.78 -14.37,-2.03 -33.52,-5.94 -54.76,5.8 -21.25,11.72 -44.61,39.1 -74.13,499.82 -29.52,460.73 -65.2,1354.81 -83.11,1808.29 -17.93,453.49 -18.08,466.39 -8.57,472.96 9.51,6.57 28.71,6.8 54.58,8.95 25.87,2.15 58.44,6.24 86.26,7.5 27.8,1.25 50.84,-0.33 82.51,-0.87 31.67,-0.54 71.96,-0.06 118.92,4.21 46.96,4.24 100.6,12.26 141.9,9.08 41.29,-3.2 70.24,-17.61 76.41,-51.65z"/>
    <path class="fil0 str0" d="M8168.39 7612.08c29.75,-14.27 87.65,-9.81 117.68,-16.79 30,-6.98 32.15,-25.39 35.64,-75.16 3.47,-49.76 8.27,-130.84 20.3,-173.1 12.02,-42.28 31.26,-45.75 46.45,-32.65 15.18,13.1 26.34,42.72 15.91,431.76 -10.44,389.02 -42.45,1137.43 -51.78,1515.4 -9.35,377.97 4,385.51 40.96,423.95 36.94,38.43 97.5,107.78 101.48,142.85 3.97,35.06 -48.63,35.83 -133.3,-19.1 -84.68,-54.96 -201.42,-165.64 -259.79,-220.98 -58.38,-55.34 -58.38,-55.34 -58.36,-89.86 -0.01,-34.55 -0.01,-103.64 0,-138.17 0,-34.55 0,-34.55 45.45,-33.32 45.43,1.22 136.31,3.66 181.87,-4.32 45.54,-8 45.76,-26.45 44.04,-42.15 -1.73,-15.69 -5.42,-28.64 -50.27,-34.88 -44.85,-6.24 -130.87,-5.76 -173.88,-5.34 -43.04,0.41 -43.04,0.74 -41.94,-19.62 1.08,-20.36 3.26,-61.43 4.36,-81.96 1.1,-20.54 1.1,-20.54 43.3,-22.55 42.18,-2 126.55,-6.02 166.15,-32.03 39.6,-26 34.43,-74.01 40.11,-307.24 5.67,-233.24 22.22,-651.71 25.75,-865.6 3.52,-213.9 -5.97,-223.25 -40.32,-225.63 -34.35,-2.39 -93.56,2.17 -123.16,4.46 -29.62,2.27 -29.62,2.27 -28.81,-14.22 0.8,-16.5 2.4,-49.49 32.16,-63.75z"/>
   </g>
   <path class="fil0 str0" d="M3127.05 8698.34c9.07,8.17 24.48,12.51 32.55,24.83 8.06,12.31 8.8,32.6 10.9,58.69 2.09,26.07 5.58,57.91 10.91,76.88 5.31,18.97 12.5,25.06 63.67,29.59 51.15,4.53 146.29,7.53 262.47,9.61 116.17,2.09 253.38,3.28 330.43,4.21 77.06,0.92 93.95,1.58 98.69,9.95 4.73,8.35 -2.72,24.39 2.21,37.6 4.91,13.19 22.17,23.55 41.67,29.09 19.5,5.52 41.24,6.25 74.59,6.18 33.32,-0.06 78.28,-0.9 97.93,-7.57 19.64,-6.69 13.99,-19.2 -9.56,-28.7 -23.57,-9.51 -65.04,-16.01 -95.12,-25.12 -30.1,-9.13 -48.8,-20.88 -62.91,-32.58 -14.11,-11.69 -23.65,-23.33 -40.71,-30.21 -17.08,-6.9 -41.69,-9.05 -161.96,-11.87 -120.28,-2.83 -336.2,-6.35 -444.82,-12.95 -108.65,-6.61 -109.97,-16.32 -110.51,-31.53 -0.55,-15.23 -0.3,-35.97 12.65,-47.11 12.93,-11.13 38.54,-12.68 51.63,-14.82 13.07,-2.15 13.57,-4.92 15.16,-95.73 1.58,-90.82 4.2,-269.67 -1.48,-358.49 -5.7,-88.84 -19.74,-87.63 -31.1,-86.62 -11.37,1.02 -20.09,1.84 -46.28,51.56 -26.21,49.71 -69.92,148.3 -92.1,225.28 -22.18,76.95 -22.85,132.29 -21.8,165.96 1.03,33.67 3.8,45.68 12.89,53.87z"/>
   <ellipse class="fil1 str0" transform="matrix(1.31784 0.016472 -0.0149484 1.29455 13466.6 12318.7)" rx="552.31" ry="562.24"/>
   <ellipse class="fil1 str0" transform="matrix(1.31784 0.016472 -0.0149484 1.29455 5859.75 12122.3)" rx="552.31" ry="562.24"/>
   <polygon class="fil0 str0" points="7956.64,8174.96 15499.47,6692.76 16667.86,8361.89 16500.95,8695.71 16179.96,8695.71 16179.96,8336.21 15319.72,7475.97 8064.45,9395.08 "/>
   <path class="fil0 str0" d="M15946.39 10167.71c-341.48,-63.57 -609.07,-345.4 -661.22,-699.92 -5.42,-43.38 -8.27,-87.86 -8.27,-133.21 0,-21.93 0.67,-43.66 1.96,-65.16 0.3,-3.67 0.63,-7.34 0.97,-11l64.71 0c34.48,341.57 257.48,605.16 527.48,605.16 293.89,0 532.13,-312.3 532.13,-697.54 0,-108.11 -18.78,-210.47 -52.28,-301.8l107.76 0c71.23,133.89 112.93,295.84 112.93,470.34 0,451.08 -278.42,818.42 -626.17,833.13z"/>
  </g>
 </g>
</svg>
