<?xml version="1.0" encoding="UTF-8"?>
<!DOCTYPE svg PUBLIC "-//W3C//DTD SVG 1.1//EN" "http://www.w3.org/Graphics/SVG/1.1/DTD/svg11.dtd">
<!-- Creator: CorelDRAW 2020 (64-Bit) -->
<svg xmlns="http://www.w3.org/2000/svg" xml:space="preserve" width="210mm" height="297mm" version="1.1" style="shape-rendering:geometricPrecision; text-rendering:geometricPrecision; image-rendering:optimizeQuality; fill-rule:evenodd; clip-rule:evenodd"
viewBox="0 0 21000 29700"
 xmlns:xlink="http://www.w3.org/1999/xlink"
 xmlns:xodm="http://www.corel.com/coreldraw/odm/2003">
 <defs>
  <style type="text/css">
   <![CDATA[
    .str0 {stroke:white;stroke-width:282.22;stroke-miterlimit:22.9256}
    .fil0 {fill:none}
   ]]>
  </style>
 </defs>
 <g id="Layer_x0020_1">
  <metadata id="CorelCorpID_0Corel-Layer"/>
  <g id="_1741413645168">
   <g>
    <g>
     <g>
      <path class="fil0 str0" d="M9046.34 13959.44l2.86 -2.58c808.08,-709.94 2005.79,-691.86 2791.09,2.4 -372.34,328.68 -861.37,528.23 -1397.08,528.23 -535.61,0 -1024.55,-199.47 -1396.87,-528.05z"/>
      <path class="fil0 str0" d="M11840.09 10791.35l-2.86 2.58c-808.09,709.95 -2005.78,691.85 -2791.09,-2.41 372.34,-328.68 861.36,-528.23 1397.07,-528.23 535.61,0 1024.56,199.49 1396.88,528.06z"/>
     </g>
     <g>
      <path class="fil0 str0" d="M9575.42 13617.48c553.8,-249.74 1188.39,-246.11 1735.58,0 -195.08,527.25 -511.08,870.01 -867.79,870.01 -356.72,0 -672.71,-342.76 -867.79,-870.01z"/>
      <path class="fil0 str0" d="M11311.01 11133.31c-553.81,249.74 -1188.4,246.11 -1735.59,-0.01 195.09,-527.24 511.08,-870.01 867.79,-870.01 356.72,0 672.72,342.78 867.8,870.02z"/>
     </g>
     <g>
      <line class="fil0 str0" x1="10443.21" y1="13431.58" x2="10443.21" y2= "14487.49" />
      <line class="fil0 str0" x1="10443.21" y1="10263.29" x2="10443.21" y2= "11319.21" />
     </g>
    </g>
    <g>
     <circle class="fil0 str0" cx="10443.21" cy="12375.39" r="2112.1"/>
     <ellipse class="fil0 str0" transform="matrix(0 0.704033 -0.704033 0 10443.2 12375.4)" rx="3000" ry="1523.99"/>
     <line class="fil0 str0" x1="10443.21" y1="10263.29" x2="10443.21" y2= "14487.49" />
     <line class="fil0 str0" x1="8331.43" y1="12412.32" x2="12555.31" y2= "12375.39" />
    </g>
   </g>
   <g>
    <path class="fil0 str0" d="M2413.16 16321.89l4130.44 0c253.24,-0.01 458.61,205.36 458.61,458.59l-0.01 2189.05c0.01,253.23 -205.36,458.59 -458.59,458.59l-4130.45 0.01c-253.23,-0.01 -458.59,-205.37 -458.59,-458.61l-0.01 -2189.03c0.01,-253.24 205.37,-458.61 458.61,-458.61z"/>
    <path class="fil0 str0" d="M14342.83 16321.89l4130.44 0c253.24,-0.01 458.6,205.36 458.6,458.59l0 2189.05c0,253.23 -205.36,458.59 -458.6,458.59l-4130.44 0.01c-253.23,-0.01 -458.6,-205.37 -458.6,-458.61l0 -2189.03c0,-253.24 205.37,-458.61 458.6,-458.61z"/>
    <path class="fil0 str0" d="M8378 16321.89l4130.44 0c253.24,-0.01 458.6,205.36 458.6,458.59l0 2189.05c0,253.23 -205.36,458.59 -458.6,458.59l-4130.44 0.01c-253.23,-0.01 -458.59,-205.37 -458.59,-458.61l-0.01 -2189.03c0.01,-253.24 205.37,-458.61 458.61,-458.61z"/>
   </g>
   <line class="fil0 str0" x1="10443.17" y1="14487.51" x2="10443.21" y2= "16321.91" />
   <polyline class="fil0 str0" points="16408.05,16321.91 10443.21,15404.71 4594.54,16321.91 "/>
  </g>
 </g>
</svg>
