<?xml version="1.0" encoding="UTF-8"?>
<!DOCTYPE svg PUBLIC "-//W3C//DTD SVG 1.1//EN" "http://www.w3.org/Graphics/SVG/1.1/DTD/svg11.dtd">
<!-- Creator: CorelDRAW 2020 (64-Bit) -->
<svg xmlns="http://www.w3.org/2000/svg" xml:space="preserve" width="200mm" height="200mm" version="1.1" style="shape-rendering:geometricPrecision; text-rendering:geometricPrecision; image-rendering:optimizeQuality; fill-rule:evenodd; clip-rule:evenodd"
viewBox="0 0 20000 20000"
 xmlns:xlink="http://www.w3.org/1999/xlink"
 xmlns:xodm="http://www.corel.com/coreldraw/odm/2003">
 <defs>
  <style type="text/css">
   <![CDATA[
    .str0 {stroke:#8EB1C7;stroke-width:10;stroke-miterlimit:22.9256}
    .fil0 {fill:white}
    .fil1 {fill:white;fill-rule:nonzero}
   ]]>
  </style>
 </defs>
 <g id="Layer_x0020_1">
  <metadata id="CorelCorpID_0Corel-Layer"/>
  <g id="_1740085078720">
   <path class="fil0 str0" d="M9071.29 10453.43l-33.61 22.38 9123.82 0c279.71,0 509.61,223.87 519.51,501.26 0.23,-4.7 0.39,-9.43 0.39,-14.16l0 -1197.05c0,-283.63 -438.09,-515.61 -973.54,-515.61l-6829.21 0 -1807.36 1203.13 0 0.05z"/>
   <path class="fil0 str0" d="M6393.01 10453.43l17.8 22.38 11750.69 0c285.95,0 519.9,233.96 519.9,519.9l0 7442.88c0,285.95 -233.95,519.9 -519.9,519.9l-16338.2 0c-285.95,0 -519.9,-233.95 -519.9,-519.9l0 -7442.88c0,-5.51 0.1,-10.97 0.29,-16.45 -0.19,-5.44 -0.29,-10.9 -0.29,-16.35l0 -1197.05c0,-283.63 232.01,-515.61 515.61,-515.61l3616.81 0 957.19 1203.13 0 0.05z"/>
  </g>
  <path class="fil1 str0" d="M8525 1056.69l0 2796.98 -1467.26 0 2934.55 2797.01 2934.54 -2797.01 -1467.26 0 0 -2796.98 -2934.57 0zm0 1398.48m-733.63 1398.5m733.63 1398.5m2934.55 0m733.65 -1398.5m-733.63 -1398.5m-1467.28 -1398.48"/>
 </g>
</svg>
